<?xml version="1.0" encoding="utf-8"?>
<!-- Generator: Adobe Illustrator 17.0.0, SVG Export Plug-In . SVG Version: 6.00 Build 0)  -->
<!DOCTYPE svg PUBLIC "-//W3C//DTD SVG 1.1//EN" "http://www.w3.org/Graphics/SVG/1.1/DTD/svg11.dtd">
<svg version="1.1" id="Layer_1" xmlns="http://www.w3.org/2000/svg" xmlns:xlink="http://www.w3.org/1999/xlink" x="0px" y="0px"
	 width="50px" height="50px" viewBox="0 0 50 50" enable-background="new 0 0 50 50" xml:space="preserve">
<rect x="0" fill="none" width="50" height="50"/>
<path fill-rule="evenodd" clip-rule="evenodd" fill="none" stroke="#000000" stroke-width="2" stroke-linecap="round" stroke-linejoin="round" stroke-miterlimit="10" d="
	M23.302,7.576c-4.842,4.901-5.053,10.19,0.422,12.943c-0.206-2.59,3.575-5.572,3.575-5.572s0.039,1.92,0.102,2.562
	c0,0,0.921,0.115,1.926,0.621c1.005,0.505,1.647,1.176,1.647,1.176c0.553-0.333,2.117-1.447,2.117-1.447s-0.138,4.813-2.34,6.193
	c5.475,2.752,9.594-0.572,10.64-7.382c2.914,1.465,10.966,11.334,6.06,23.283c-1.878-6.003-9.771-5.451-11.758-2.58
	c-3.255-3.484-8.77-1.076-10.1,3.827c-1.08-3.906-5.576-3.607-7.864,0c-0.061-1.548,2.74-6.564-4.324-6.564
	c3.491-2.66,2.078-9.475-3.158-9.475C12.175,21.326,7.909,13.647,1,16.601C7.796,5.598,20.388,6.112,23.302,7.576z"/>
</svg>
