<?xml version="1.0" encoding="utf-8"?>
<!-- Generator: Adobe Illustrator 17.0.0, SVG Export Plug-In . SVG Version: 6.00 Build 0)  -->
<!DOCTYPE svg PUBLIC "-//W3C//DTD SVG 1.1//EN" "http://www.w3.org/Graphics/SVG/1.1/DTD/svg11.dtd">
<svg xmlns="http://www.w3.org/2000/svg" xmlns:xlink="http://www.w3.org/1999/xlink" version="1.1" id="Layer_1" x="0px" y="0px" width="26px" height="26px" viewBox="0 0 26 26" enable-background="new 0 0 26 26" xml:space="preserve">
<path fill-rule="evenodd" clip-rule="evenodd" fill="#000000" d="M12.08,3.421c-2.623,2.655-2.737,5.52,0.228,7.011  c-0.112-1.403,1.936-3.018,1.936-3.018s0.021,1.04,0.055,1.388c0,0,0.499,0.062,1.043,0.336c0.544,0.274,0.892,0.637,0.892,0.637  c0.3-0.18,1.147-0.784,1.147-0.784s-0.075,2.607-1.267,3.354c2.966,1.491,5.197-0.31,5.763-3.999  c1.578,0.793,5.94,6.139,3.282,12.612c-1.017-3.251-5.293-2.952-6.369-1.398c-1.763-1.887-5.05-1.077-5.77,1.579  c-0.585-2.116-2.721-1.46-3.96,0.494c-0.033-0.839,1.484-3.555-2.342-3.555c1.891-1.441,1.125-5.132-1.711-5.132  C6.053,10.868,3.743,6.709,0,8.309C3.681,2.349,10.502,2.627,12.08,3.421z"/>
</svg>
