<?xml version="1.0" encoding="utf-8"?>
<!-- Generator: Adobe Illustrator 17.1.0, SVG Export Plug-In . SVG Version: 6.00 Build 0)  -->
<!DOCTYPE svg PUBLIC "-//W3C//DTD SVG 1.1//EN" "http://www.w3.org/Graphics/SVG/1.1/DTD/svg11.dtd">
<svg version="1.1" id="Layer_1" xmlns="http://www.w3.org/2000/svg" xmlns:xlink="http://www.w3.org/1999/xlink" x="0px" y="0px"
	 width="24px" height="24px" viewBox="0 0 24 24" style="enable-background:new 0 0 24 24;" xml:space="preserve">
<path d="M20.7,5.6l-2.1,2.1c0,0-1-0.3-1.7-0.3c-0.7,0-1.6,0.3-1.6,0.3l-1.5-2.3c0,0-1.2,1-1.2,3.9c0,2.9,1.9,4.4,3.3,4.7
	c-5.9-0.3-4.1-7.3-4.1-7.3S10.4,4,9.1,4C7.4,4,5.8,5.3,4.8,6.8c0,0-1.1-0.5-1.1-1.7c0-2.2,2.1-3.6,4.3-3.6c1.9,0,2.8,0.8,3.5,1.8
	c0.8,1,1.7,0.1,1.2-1C12.5,1.9,11.1,0,8.4,0C4.7,0,2,1.9,2,5.2c0,2.4,1.8,3.6,1.8,3.6s-0.8,1.8-0.8,4.6c0,4.9,0.4,8,0.5,9.4
	c0,0.6,0.4,1.1,0.6,1.1c0.3,0,0.6,0,0.7-1c0.3-2.4,0.7-6.3,1.1-7.7c0.4-1.3,0.9-2.5,1.8-2.4c1,0.1,1.7,1,1.9,3.5
	c0.2,1.9,0.2,4.7,0.2,5.7c-0.1,1.8,0.5,1.9,0.8,1.9c0.4,0,0.6-0.5,0.8-1.6c1-5.2,1.6-7.5,2.5-7.5c1.2,0,1.4,2.7,1.9,7.7
	c0.1,1.2,0.6,1.4,1.2,1.4c0.7,0,0.5-1.2,0.6-2.5c0.3-2.5,0.3-7.4,0.3-7.4S21,13.8,21,9.3C21,7.3,20.7,5.6,20.7,5.6z M15.4,11
	c-0.8-0.1-0.7-1.1-0.7-1.4l0.7,0.3l0.4,1l0.3-0.7l0.8,0.3C16.9,10.5,16.2,11.2,15.4,11z M19,11c-0.8,0.1-1.6-0.5-1.6-0.5l1-0.5
	l0.2,0.9L19,9.8l0.7-0.3C19.8,9.8,19.8,10.9,19,11z"/>
</svg>
