<?xml version="1.0" encoding="utf-8"?>
<!-- Generator: Adobe Illustrator 17.0.0, SVG Export Plug-In . SVG Version: 6.00 Build 0)  -->
<!DOCTYPE svg PUBLIC "-//W3C//DTD SVG 1.1//EN" "http://www.w3.org/Graphics/SVG/1.1/DTD/svg11.dtd">
<svg xmlns="http://www.w3.org/2000/svg" xmlns:xlink="http://www.w3.org/1999/xlink" version="1.1" id="Layer_1" x="0px" y="0px" width="26px" height="26px" viewBox="0 0 26 26" enable-background="new 0 0 26 26" xml:space="preserve">
<path fill="#000000" d="M22.609,6.078l-2.219,2.297c0,0-1.047-0.281-1.805-0.281c-0.757,0-1.648,0.297-1.648,0.297l-1.609-2.498  c0,0-1.234,1.075-1.234,4.24c0,3.167,2.031,4.742,3.464,5.113c-6.215-0.315-4.308-7.902-4.308-7.902s-1.459-3.281-2.781-3.281  c-1.763,0-3.998,2.525-4.289,3.401C5.971,7.4,4.866,6.885,4.866,5.546c0-2.39,2.23-3.886,4.464-3.886  c2.012,0,2.897,0.853,3.65,1.891c0.79,1.088,1.804,0.111,1.208-1.059c-0.21-0.412-1.68-2.445-4.489-2.445  c-3.861,0-6.702,2.011-6.702,5.631c0,2.593,2.057,3.475,2.057,3.475s-1.07,0.909-1.07,3.938c0,5.267,0.432,10.167,0.523,11.7  c0.041,0.684,0.4,1.157,0.654,1.158c0.342,0.003,0.631-0.043,0.766-1.027c0.35-2.552,0.732-6.809,1.141-8.283  c0.402-1.449,0.928-2.674,1.883-2.62c1.052,0.06,1.747,1.043,2.001,3.777c0.188,2.025,0.204,5.09,0.167,6.136  c-0.068,1.895,0.505,2.015,0.859,2.017c0.429,0.002,0.582-0.566,0.803-1.774c1.028-5.625,1.691-8.054,2.639-8.054  c1.209,0,1.519,2.88,1.972,8.349c0.111,1.341,0.653,1.5,1.234,1.5c0.76,0,0.529-1.313,0.669-2.699c0.274-2.717,0.3-8.023,0.3-8.023  s3.328-0.315,3.328-5.114C22.922,7.895,22.609,6.078,22.609,6.078z M17.052,11.973c-0.807-0.147-0.782-1.227-0.706-1.522  l0.722,0.305l0.386,1.056l0.348-0.746l0.865,0.366C18.667,11.433,17.859,12.12,17.052,11.973z M20.838,11.966  c-0.814,0.159-1.629-0.583-1.629-0.583l1.099-0.498l0.192,1.021l0.359-1.266l0.691-0.318C21.628,10.64,21.652,11.807,20.838,11.966z  "/>
</svg>
