<?xml version="1.0" encoding="utf-8"?>
<!-- Generator: Adobe Illustrator 17.1.0, SVG Export Plug-In . SVG Version: 6.00 Build 0)  -->
<!DOCTYPE svg PUBLIC "-//W3C//DTD SVG 1.0//EN" "http://www.w3.org/TR/2001/REC-SVG-20010904/DTD/svg10.dtd">
<svg version="1.0" id="Layer_1" xmlns="http://www.w3.org/2000/svg" xmlns:xlink="http://www.w3.org/1999/xlink" x="0px" y="0px"
	 viewBox="0 0 50 50" enable-background="new 0 0 50 50" xml:space="preserve">
<path fill="none" stroke="#000000" stroke-width="2" stroke-linecap="round" stroke-linejoin="round" stroke-miterlimit="10" d="
	M27.2,16.2c0,0-4.5-7.7-6.9-7.7c-3.3,0-7.4,4.7-7.9,6.3C12,14.7,10,13.7,10,11.2c0-4.4,4.1-7.2,8.2-7.2c3.7,0,5.3,1.6,6.7,3.5
	c1.5,2,3.3,0.2,2.2-2c-0.4-0.8-3.1-4.5-8.3-4.5c-7.1,0-12.4,3.7-12.4,10.4c0,4.8,3.8,6.4,3.8,6.4s-2,1.7-2,7.3
	c0,9.7,0.8,18.8,1,21.6c0.1,1.3,0.7,2.1,1.2,2.1c0.6,0,1.2-0.1,1.4-1.9c0.6-4.7,1.4-12.6,2.1-15.3c0.7-2.7,1.7-4.9,3.5-4.8
	c1.9,0.1,3.2,1.9,3.7,7c0.3,3.7,0.4,9.4,0.3,11.3c-0.1,3.5,0.9,3.7,1.6,3.7c0.8,0,1.1-1,1.5-3.3c1.9-10.4,3.1-14.9,4.9-14.9
	c2.2,0,2.8,5.3,3.6,15.4c0.2,2.5,1.2,2.8,2.3,2.8c1.4,0,1-2.4,1.2-5c0.5-5,0.6-14.8,0.6-14.8s6.1-0.6,6.1-9.4c0-4.1-0.6-7.5-0.6-7.5
	l-4.1,4.2c0,0-1.9-0.5-3.3-0.5c-1.4,0-3,0.5-3,0.5l-3-4.6c0,0-2.3,2-2.3,7.8c0,5.8,3.8,8.8,6.4,9.4"/>
<path d="M32.5,23.1c-1.5-0.3-1.4-2.3-1.3-2.8l1.3,0.6l0.7,2l0.6-1.4l1.6,0.7C35.5,22.1,34,23.4,32.5,23.1z"/>
<path d="M39.5,23.1c-1.5,0.3-3-1.1-3-1.1l2-0.9l0.4,1.9l0.7-2.3l1.3-0.6C40.9,20.6,41,22.8,39.5,23.1z"/>
</svg>
