<?xml version="1.0" encoding="utf-8"?>
<!-- Generator: Adobe Illustrator 17.1.0, SVG Export Plug-In . SVG Version: 6.00 Build 0)  -->
<!DOCTYPE svg PUBLIC "-//W3C//DTD SVG 1.1//EN" "http://www.w3.org/Graphics/SVG/1.1/DTD/svg11.dtd">
<svg version="1.1" id="Layer_1" xmlns="http://www.w3.org/2000/svg" xmlns:xlink="http://www.w3.org/1999/xlink" x="0px" y="0px"
	 width="26px" height="26px" viewBox="0 0 26 26" style="enable-background:new 0 0 26 26;" xml:space="preserve">
<path d="M23,26H3v-0.9C3,24.5,3.5,24,4.1,24h17.7c0.6,0,1.1,0.5,1.1,1.1V26z"/>
<path d="M19.7,3h-1.3c-1.1-1.1-2.8-3-5.5-3c-2.6,0-4.4,1.9-5.5,3H6.3C5.6,3,5,3.6,5,4.3L6,23h14l1-18.7C21,3.6,20.4,3,19.7,3z M17,8
	H9V7h8V8z M17,11H9v-1h8V11z"/>
</svg>
