<?xml version="1.0" encoding="utf-8"?>
<!-- Generator: Adobe Illustrator 17.1.0, SVG Export Plug-In . SVG Version: 6.00 Build 0)  -->
<!DOCTYPE svg PUBLIC "-//W3C//DTD SVG 1.1//EN" "http://www.w3.org/Graphics/SVG/1.1/DTD/svg11.dtd">
<svg version="1.1" id="Layer_1" xmlns="http://www.w3.org/2000/svg" xmlns:xlink="http://www.w3.org/1999/xlink" x="0px" y="0px"
	 width="50px" height="50px" viewBox="0 0 50 50" style="enable-background:new 0 0 50 50;" xml:space="preserve">
<style type="text/css">
	.st0{fill:none;stroke:#000000;stroke-width:2;stroke-linecap:round;stroke-linejoin:round;stroke-miterlimit:10;}
	.st1{fill:none;stroke:#000000;stroke-width:2;stroke-miterlimit:10;}
</style>
<path class="st0" d="M38,45l2-36c0-1.3-1.1-2.4-2.4-2.4h-2.4C33.2,4.5,29.9,1,25,1c-4.9,0-8.2,3.5-10.2,5.6h-2.4
	C11.1,6.6,10,7.7,10,9l2,36 M17,16h16 M17,23h16"/>
<path class="st1" d="M43,49H7v-1.8C7,46,8,45,9.2,45h31.6c1.2,0,2.2,1,2.2,2.2V49z"/>
</svg>
