<?xml version="1.0" encoding="utf-8"?>
<!-- Generator: Adobe Illustrator 17.1.0, SVG Export Plug-In . SVG Version: 6.00 Build 0)  -->
<!DOCTYPE svg PUBLIC "-//W3C//DTD SVG 1.0//EN" "http://www.w3.org/TR/2001/REC-SVG-20010904/DTD/svg10.dtd">
<svg version="1.0" id="Layer_1" xmlns="http://www.w3.org/2000/svg" xmlns:xlink="http://www.w3.org/1999/xlink" x="0px" y="0px"
	 width="26px" height="26px" viewBox="0 0 26 26" style="enable-background:new 0 0 26 26;" xml:space="preserve">
<path d="M7.8,11.9c0,0,0,2.1,1,2.7c1.2,0.7,3.1,0,3.2-0.7C11.4,13.6,9,12.6,7.8,11.9z"/>
<path d="M18.2,11.9c0,0,0,2.1-1,2.7c-1.2,0.7-3.1,0-3.2-0.7C14.6,13.6,17,12.6,18.2,11.9z"/>
<path style="fill:none;stroke:#000000;stroke-width:1.6;stroke-linecap:round;stroke-linejoin:round;stroke-miterlimit:10;" d="
	M4.9,10c-0.1,0.4-0.1,0.8-0.1,1.2c-1,0-1.8,1.1-1.8,2.6c0,1.5,1.5,2.8,2.3,2.8C5.5,21,10,25,13,25c3,0,7.4-4,7.7-8.4
	c1,0,2.3-1.4,2.3-2.8c0-1.4-0.8-2.6-1.8-2.6c0-0.5-0.1-1-0.2-1.4"/>
<path d="M16,18.8c-0.8-1.5-1.4-0.2-3-0.2c-1.6,0-2.3-1.2-3,0.2c-0.4,0.8,1,2.7,3,2.7S16.4,19.5,16,18.8z M14.5,19.5
	c0,0-0.4-0.1-0.5-0.3c-0.1,0.2-0.4,0.5-0.5,0.5c-0.1,0-0.5-0.4-0.6-0.5c-0.1,0.2-0.4,0.5-0.5,0.5s-0.4-0.4-0.4-0.6
	c-0.2,0.2-0.5,0.4-0.6,0.4c-0.1,0-0.5-0.8-0.5-0.9c0.5,0.1,1,0.5,2,0.5c1,0,1.7-0.3,2-0.5C14.9,19.1,14.5,19.5,14.5,19.5z"/>
<path d="M25.8,16.9c0-6.4-2.5-8.4-2.5-8.4s1.6,0.8,2.5,2.1C21.9,0.3,14,0.1,13,0.1c-1,0-8.9,0.2-12.9,10.4C1,9.3,2.6,8.5,2.6,8.5
	s-2.5,2-2.5,8.4c0.8-1.1,1.1-1,1.1-1s-1.7,4.7,0,9.9c0.7-0.2,7.5-2.2,8.3-2.4c-0.3-0.1-4.1-3.1-4.5-6.6c-0.4,0-2.2-0.9-2.2-3.1
	c0-2.4,2.8-2.9,2.8-2.9s0.5-4.1,1.8-5.5c1.5-1.7,2.7-2.2,3.7-2.2c0.9,0,0.1,1.8,1.9,1.8c0,0,0,0,0,0c0,0,0,0,0.1,0c0,0,0,0,0.1,0
	c0,0,0,0,0,0c1.7-0.1,1-1.8,1.9-1.8c1,0,2.1,0.5,3.7,2.2c1.3,1.4,1.8,5.5,1.8,5.5s2.8,0.5,2.8,2.9c0,2.2-1.8,3-2.2,3.1
	c-0.4,3.5-4.2,6.5-4.5,6.6c0.8,0.2,7.6,2.1,8.3,2.4c1.6-5.2,0-9.9,0-9.9S25,15.8,25.8,16.9z"/>
<path style="fill:none;stroke:#000000;stroke-width:1.2;stroke-linecap:round;stroke-linejoin:round;stroke-miterlimit:10;" d="M7,5
	c0,0,2.4,2.7,6,6"/>
<line style="fill:none;stroke:#000000;stroke-width:1.2;stroke-linecap:round;stroke-linejoin:round;stroke-miterlimit:10;" x1="8.5" y1="8.5" x2="10.5" y2="6.5"/>
<line style="fill:none;stroke:#000000;stroke-width:1.2;stroke-linecap:round;stroke-linejoin:round;stroke-miterlimit:10;" x1="10.5" y1="10.5" x2="12.5" y2="8.5"/>
</svg>
