<?xml version="1.0" encoding="utf-8"?>
<!-- Generator: Adobe Illustrator 17.1.0, SVG Export Plug-In . SVG Version: 6.00 Build 0)  -->
<!DOCTYPE svg PUBLIC "-//W3C//DTD SVG 1.0//EN" "http://www.w3.org/TR/2001/REC-SVG-20010904/DTD/svg10.dtd">
<svg version="1.0" id="Layer_1" xmlns="http://www.w3.org/2000/svg" xmlns:xlink="http://www.w3.org/1999/xlink" x="0px" y="0px"
	 width="50px" height="50px" viewBox="0 0 50 50" style="enable-background:new 0 0 50 50;" xml:space="preserve">
<rect x="0" style="fill:none;" width="50" height="50"/>
<path style="fill:none;stroke:#000000;stroke-width:2;stroke-linecap:round;stroke-linejoin:round;stroke-miterlimit:10;" d="
	M36,18.9L30.4,2.3c-0.3-0.8-1-1.3-1.8-1.3H13.9c-0.8,0-1.5,0.5-1.8,1.3L6.6,18.9c-0.1,0.3-0.1,0.6-0.1,0.9l5.5,27.7
	c0.2,0.9,0.9,1.5,1.8,1.5h14.8c0.9,0,1.6-0.6,1.8-1.5L36,19.8C36.1,19.5,36.1,19.2,36,18.9z"/>
<path style="fill:none;stroke:#000000;stroke-width:2;stroke-linecap:round;stroke-linejoin:round;stroke-miterlimit:10;" d="
	M28.5,49h7.5c0.9,0,1.6-0.6,1.8-1.5l5.5-27.7c0.1-0.3,0-0.6-0.1-0.9L37.8,2.3c-0.3-0.8-1-1.3-1.8-1.3h-7.5"/>
<path style="fill:none;stroke:#000000;stroke-width:2;stroke-linecap:round;stroke-linejoin:round;stroke-miterlimit:10;" d="
	M37.8,18.9"/>
<polygon points="27,20 22,20 22,32 19,32 19,20 14,20 14,17 19,17 19,10 22,10 22,17 27,17 "/>
</svg>
