<?xml version="1.0" encoding="utf-8"?>
<!-- Generator: Adobe Illustrator 15.0.0, SVG Export Plug-In . SVG Version: 6.00 Build 0)  -->
<!DOCTYPE svg PUBLIC "-//W3C//DTD SVG 1.1//EN" "http://www.w3.org/Graphics/SVG/1.1/DTD/svg11.dtd">
<svg xmlns="http://www.w3.org/2000/svg" xmlns:xlink="http://www.w3.org/1999/xlink" version="1.1" id="Layer_1" x="0px" y="0px" width="26px" height="26px" viewBox="0 0 26 26" enable-background="new 0 0 26 26" xml:space="preserve">
<path fill="none" stroke="#000000" stroke-width="1.8" stroke-linecap="round" stroke-linejoin="round" stroke-miterlimit="10" d="  M5,12c-1.017,0-1,1.171-1,2.635C4,16.1,5.196,18,6,18c0,2,0,7,7,7s7-5,7-7c1.021,0,2-1.954,2-3.365C22,13.226,21.965,12,21,12"/>

<path fill="#000000" d="M14,13c0,1.085,0.894,1.963,1.959,1.963s1.994-0.878,1.994-1.963H14z"/>
<path fill="#000000" d="M12,13c0,1.085-0.894,1.963-1.959,1.963S8.047,14.085,8.047,13H12z"/>
<path fill="#000000" d="M5.934,13.303c0-8.77-1.347-9.393,7.066-9.393s7.092,0.811,7.092,9.393c0.554-0.323,1.867-1.67,1.867-4.511  c0-8.358,0.507-8.625-8.92-8.625S4.063,0.588,4.063,8.792C4.063,11.94,5.115,12.484,5.934,13.303z"/>
<path fill="#000000" d="M9.53,20.344c2.148-2.038,7.47-2.213,7.47-2.213s-0.162,2.354-3,1.775  C11.634,19.424,9.53,20.344,9.53,20.344z"/>
<path fill="none" stroke="#000000" stroke-width="1.2" stroke-linecap="round" stroke-linejoin="round" stroke-miterlimit="10" d="  M7,5c0,0,2.415,2.699,6.02,6.031"/>
<line fill="none" stroke="#000000" stroke-width="1.2" stroke-linecap="round" stroke-linejoin="round" stroke-miterlimit="10" x1="8.5" y1="8.5" x2="10.5" y2="6.5"/>
<line fill="none" stroke="#000000" stroke-width="1.2" stroke-linecap="round" stroke-linejoin="round" stroke-miterlimit="10" x1="10.5" y1="10.5" x2="12.5" y2="8.5"/>
</svg>
