<?xml version="1.0" encoding="utf-8"?>
<!-- Generator: Adobe Illustrator 17.1.0, SVG Export Plug-In . SVG Version: 6.00 Build 0)  -->
<!DOCTYPE svg PUBLIC "-//W3C//DTD SVG 1.0//EN" "http://www.w3.org/TR/2001/REC-SVG-20010904/DTD/svg10.dtd">
<svg version="1.0" id="Layer_1" xmlns="http://www.w3.org/2000/svg" xmlns:xlink="http://www.w3.org/1999/xlink" x="0px" y="0px"
	 width="26px" height="26px" viewBox="0 0 26 26" style="enable-background:new 0 0 26 26;" xml:space="preserve">
<path d="M7.8,13.9c0,0,0,2.1,1,2.7c1.2,0.7,3.1,0,3.2-0.7C11.4,15.6,9,14.6,7.8,13.9z"/>
<path d="M18.2,13.9c0,0,0,2.1-1,2.7c-1.2,0.7-3.1,0-3.2-0.7C14.6,15.6,17,14.6,18.2,13.9z"/>
<path style="fill:none;stroke:#000000;stroke-width:1.6;stroke-linecap:round;stroke-linejoin:round;stroke-miterlimit:10;" d="
	M5.9,11c-0.1,0.4-0.1,0.8-0.1,1.2c-1,0-1.8,1.1-1.8,2.6c0,1.5,1.5,2.8,2.3,2.8C6.5,22,11.7,25,13,25c1.3,0,6.4-3,6.7-7.4
	c1,0,2.3-1.4,2.3-2.8c0-1.4-0.8-2.6-1.8-2.6c0-0.5-0.1-1-0.2-1.4"/>
<path d="M19,11.2l0.4,2.7c0,0,0.9-1.6,2.3-0.9c0.3-1,0.7-2.5-0.1-3.1C20.7,9.5,19,11.2,19,11.2z"/>
<path d="M7,11.2L6.6,14c0,0-0.9-1.5-2.3-0.9C4,12.3,3.8,10.5,4.6,9.9C5.4,9.5,7,11.2,7,11.2z"/>
<path d="M16,19.8c-0.8-1.5-1.4-0.2-3-0.2c-1.6,0-2.3-1.2-3,0.2c-0.4,0.8,1,2.7,3,2.7S16.4,20.5,16,19.8z M14.5,20.5
	c0,0-0.4-0.1-0.5-0.3c-0.1,0.2-0.4,0.5-0.5,0.5c-0.1,0-0.5-0.4-0.6-0.5c-0.1,0.2-0.4,0.5-0.5,0.5c-0.1,0-0.4-0.4-0.4-0.6
	c-0.2,0.2-0.5,0.4-0.6,0.4c-0.1,0-0.5-0.8-0.5-0.9c0.5,0.1,1,0.5,2,0.5c1,0,1.7-0.3,2-0.5C14.9,20.1,14.5,20.5,14.5,20.5z"/>
<g>
	<path d="M13,8.8c4,0,6.3-1,7.2-1.5C20,6.8,20,6.4,19.9,5.7C19,2,17.9,0.1,16,0.1c-1,0-2.2,1.6-3,1.6c-0.7,0-2-1.6-3-1.6
		c-1.9,0-3,2-3.9,5.6C6.1,6,6.1,7.1,6,7.4C7,7.9,9.2,8.8,13,8.8z"/>
	<path d="M20.7,8.5c-1.1,0.6-3.5,1.6-7.7,1.6c-4.1,0-6.5-1-7.6-1.6C4,9.8,1.1,9.7,1.1,10.2c0,0.6,4.8,3.7,11.9,3.7
		s11.9-3.1,11.9-3.7C24.9,9.7,22.1,10.3,20.7,8.5z"/>
</g>
</svg>
