<?xml version="1.0" encoding="utf-8"?>
<!-- Generator: Adobe Illustrator 17.1.0, SVG Export Plug-In . SVG Version: 6.00 Build 0)  -->
<!DOCTYPE svg PUBLIC "-//W3C//DTD SVG 1.1//EN" "http://www.w3.org/Graphics/SVG/1.1/DTD/svg11.dtd">
<svg version="1.1" id="Layer_1" xmlns="http://www.w3.org/2000/svg" xmlns:xlink="http://www.w3.org/1999/xlink" x="0px" y="0px"
	 width="24px" height="24px" viewBox="0 0 24 24" style="enable-background:new 0 0 24 24;" xml:space="preserve">
<style type="text/css">
	.st0{fill:none;stroke:#000000;stroke-width:2;stroke-linecap:round;stroke-miterlimit:10;}
</style>
<path class="st0" d="M19.3,8.4C17.2,7.9,18.3,1,12,1C5.5,1,7,7.6,4.7,8.4C2.4,9.2,1,11,1,13.5c5.1,0.3,2.4,4.6,4.3,5.2
	C7.2,19.4,8,19.5,8.7,21c0.5,1.1,1.3,2,3.3,2c3.3,0,2.9-2.8,4.6-3.3c4.4-1.3,0.3-5.4,6.3-5.1C23,12.1,23,9.3,19.3,8.4z"/>
<ellipse cx="9.7" cy="7.4" rx="1.4" ry="1.8"/>
<ellipse cx="13.4" cy="7.4" rx="1.4" ry="1.8"/>
</svg>
