<?xml version="1.0" encoding="utf-8"?>
<!-- Generator: Adobe Illustrator 17.0.0, SVG Export Plug-In . SVG Version: 6.00 Build 0)  -->
<!DOCTYPE svg PUBLIC "-//W3C//DTD SVG 1.1//EN" "http://www.w3.org/Graphics/SVG/1.1/DTD/svg11.dtd">
<svg xmlns="http://www.w3.org/2000/svg" xmlns:xlink="http://www.w3.org/1999/xlink" version="1.1" id="Layer_1" x="0px" y="0px" width="26px" height="26px" viewBox="0 0 26 26" enable-background="new 0 0 26 26" xml:space="preserve">
<path fill="none" stroke="#000000" stroke-width="2" stroke-linecap="round" stroke-linejoin="round" stroke-miterlimit="10" d="  M20.927,9.104C18.621,8.58,19.885,1,13,1C5.931,1,7.512,8.21,4.988,9.104C2.555,9.965,1,11.907,1,14.668  c5.605,0.296,2.647,4.985,4.68,5.663c2.082,0.694,2.969,0.849,3.747,2.498c0.563,1.193,1.388,2.203,3.654,2.174  c3.654-0.046,3.149-3.052,4.996-3.608c4.765-1.434,0.37-5.875,6.922-5.524C25,13.11,25.016,10.032,20.927,9.104z"/>
<ellipse fill="#000000" cx="10.5" cy="8" rx="1.5" ry="2"/>
<ellipse fill="#000000" cx="14.5" cy="8" rx="1.5" ry="2"/>
</svg>
