<?xml version="1.0" encoding="utf-8"?>
<!-- Generator: Adobe Illustrator 17.0.0, SVG Export Plug-In . SVG Version: 6.00 Build 0)  -->
<!DOCTYPE svg PUBLIC "-//W3C//DTD SVG 1.1//EN" "http://www.w3.org/Graphics/SVG/1.1/DTD/svg11.dtd">
<svg version="1.1" id="Layer_1" xmlns="http://www.w3.org/2000/svg" xmlns:xlink="http://www.w3.org/1999/xlink" x="0px" y="0px"
	 width="50px" height="50px" viewBox="0 0 50 50" enable-background="new 0 0 50 50" xml:space="preserve">
<path fill="none" stroke="#000000" stroke-width="2" stroke-linecap="round" stroke-linejoin="round" stroke-miterlimit="10" d="
	M40.847,17.204C36.236,16.157,38.764,1,24.996,1C10.86,1,14.023,15.418,8.974,17.204C4.109,18.926,1,22.81,1,28.333
	c11.209,0.593,5.293,9.968,9.359,11.323c4.163,1.388,5.936,1.699,7.493,4.995c1.126,2.385,2.775,4.405,7.308,4.348
	c7.308-0.093,6.297-6.104,9.99-7.215c9.528-2.868,0.74-11.748,13.842-11.046C48.992,25.216,49.023,19.062,40.847,17.204z"/>
<ellipse cx="26.996" cy="13.998" rx="2" ry="3"/>
<ellipse cx="18.996" cy="13.998" rx="2" ry="3"/>
</svg>
