<?xml version="1.0" encoding="utf-8"?>
<!-- Generator: Adobe Illustrator 17.0.2, SVG Export Plug-In . SVG Version: 6.00 Build 0)  -->
<!DOCTYPE svg PUBLIC "-//W3C//DTD SVG 1.1//EN" "http://www.w3.org/Graphics/SVG/1.1/DTD/svg11.dtd">
<svg xmlns="http://www.w3.org/2000/svg" xmlns:xlink="http://www.w3.org/1999/xlink" version="1.1" id="Layer_1" x="0px" y="0px" width="24px" height="24px" viewBox="0 0 24 24" enable-background="new 0 0 24 24" xml:space="preserve">
<path fill="#000000" d="M12,0C9.791,0,8,1.791,8,4c0,2.209,1.791,4,4,4s4-1.791,4-4C16,1.791,14.209,0,12,0z M9.719,3.5  c0-0.432,0.35-0.781,0.781-0.781s0.781,0.35,0.781,0.781c0,0.431-0.35,0.781-0.781,0.781S9.719,3.931,9.719,3.5z M13.716,5.949  C13.696,5.981,13.231,6.75,12,6.75s-1.696-0.769-1.716-0.801c-0.07-0.119-0.03-0.272,0.089-0.342  c0.116-0.067,0.271-0.031,0.341,0.087C10.728,5.716,11.068,6.25,12,6.25s1.272-0.534,1.286-0.557  c0.072-0.116,0.226-0.155,0.342-0.084C13.746,5.68,13.785,5.831,13.716,5.949z M13.5,4.281c-0.432,0-0.781-0.35-0.781-0.781  c0-0.432,0.35-0.781,0.781-0.781s0.781,0.35,0.781,0.781C14.281,3.931,13.932,4.281,13.5,4.281z"/>
<g>
	<path fill="#000000" d="M4.327,6.323C3.974,6.242,3.644,6.158,3.35,6.074c-0.969-0.279-1.99,0.265-2.275,1.22   C0.79,8.247,1.345,9.247,2.317,9.528C2.482,9.575,2.821,9.654,3.252,9.75L4.327,6.323z"/>
	<path fill="#000000" d="M5.809,21.263c-0.099,0.284-0.161,0.463-0.161,0.463c-0.266,0.959,0.31,1.948,1.286,2.21   C7.096,23.98,7.258,24,7.418,24c0.807,0,1.545-0.526,1.768-1.327c0,0,0.043-0.096,0.112-0.249L5.809,21.263z"/>
	<path fill="#000000" d="M22.925,7.294c-0.285-0.954-1.302-1.5-2.275-1.22c-0.294,0.085-0.624,0.168-0.977,0.249l1.075,3.427   c0.431-0.096,0.769-0.174,0.935-0.222C22.655,9.247,23.21,8.247,22.925,7.294z"/>
	<path fill="#000000" d="M18.191,21.263l-3.488,1.161c0.069,0.154,0.112,0.25,0.112,0.25c0.222,0.8,0.961,1.327,1.768,1.327   c0.159,0,0.322-0.021,0.483-0.064c0.977-0.262,1.553-1.251,1.286-2.21C18.352,21.726,18.289,21.547,18.191,21.263z"/>
	<path fill="#000000" d="M17.896,20.411C17.131,18.184,16,13.842,16,13.201c0-0.868,0-0.52,0-1.35c0-0.83,0.256-1.14,0.569-1.208   c1.095-0.236,2.3-0.488,3.281-0.698l-1.076-3.43C16.211,7.028,12.946,7.414,12,7.414c-0.945,0-4.211-0.386-6.774-0.899L4.15,9.945   c0.985,0.211,2.195,0.464,3.294,0.701C7.752,10.712,8,11.049,8,11.851c0,0.802,0,0.479,0,1.35c0,0.643-1.13,4.984-1.896,7.21   l3.564,1.186c0.585-1.308,1.521-3.411,1.756-3.993c0.347-0.862,0.823-0.8,1.16,0.018c0.228,0.552,1.165,2.663,1.75,3.975   L17.896,20.411z M12,9c0.552,0,1,0.448,1,1c0,0.552-0.448,1-1,1s-1-0.448-1-1C11,9.448,11.448,9,12,9z M12,15c-0.552,0-1-0.448-1-1   c0-0.552,0.448-1,1-1s1,0.448,1,1C13,14.552,12.552,15,12,15z"/>
</g>
</svg>
