<?xml version="1.0" encoding="utf-8"?>
<!-- Generator: Adobe Illustrator 17.1.0, SVG Export Plug-In . SVG Version: 6.00 Build 0)  -->
<!DOCTYPE svg PUBLIC "-//W3C//DTD SVG 1.1//EN" "http://www.w3.org/Graphics/SVG/1.1/DTD/svg11.dtd">
<svg version="1.1" id="Layer_1" xmlns="http://www.w3.org/2000/svg" xmlns:xlink="http://www.w3.org/1999/xlink" x="0px" y="0px"
	 width="24px" height="24px" viewBox="0 0 24 24" style="enable-background:new 0 0 24 24;" xml:space="preserve">
<g>
	<path d="M14.5,1.9c4.2,0,7.6,3.4,7.6,7.6s-3.4,7.6-7.6,7.6s-7.6-3.4-7.6-7.6S10.3,1.9,14.5,1.9 M14.5,0C9.3,0,5,4.3,5,9.5
		S9.3,19,14.5,19S24,14.7,24,9.5S19.7,0,14.5,0L14.5,0z"/>
</g>
<path d="M14.7,9.7c3.2-4.4,1.9-8,0.4-9.5c-0.4-0.4-1.7,0.9-1.4,1.3c0.1,0.1,3.5,3.5,0.4,7.7c-3.2,4.4-1.9,8-0.4,9.5
	c0.2,0.2,1.7-0.9,1.4-1.3C15.1,17.3,11.7,13.9,14.7,9.7z"/>
<path d="M14.2,9.7c4.4,3.2,8,1.9,9.5,0.4c0.4-0.4-0.9-1.7-1.3-1.4c-0.1,0.1-3.5,3.5-7.7,0.4c-4.4-3.2-8-1.9-9.5-0.4
	C5.1,9,6.2,10.5,6.6,10.2C6.7,10,10.1,6.7,14.2,9.7z"/>
<path d="M14.5,9.8c5.4-0.8,7-4.3,7-6.4c0-0.5-1.9-0.5-1.9,0c0,0.2,0,4.9-5.1,5.7c-5.4,0.8-7,4.3-7,6.4c0,0.3,1.9,0.5,1.9,0
	C9.4,15.4,9.4,10.6,14.5,9.8z"/>
<path d="M14.1,9.5c0.8,5.4,4.3,7,6.4,7c0.5,0,0.5-1.9,0-1.9c-0.2,0-4.9,0-5.7-5.1c-0.8-5.4-4.3-7-6.4-7c-0.3,0-0.5,1.9,0,1.9
	C8.6,4.4,13.4,4.4,14.1,9.5z"/>
<path d="M6.3,16.3l-5.8,5.1c-0.6,0.6-0.6,1.5,0,2.1l0,0c0.6,0.6,1.5,0.6,2.1,0l5.1-5.8L6.3,16.3z"/>
</svg>
