<?xml version="1.0" encoding="utf-8"?>
<!-- Generator: Adobe Illustrator 17.0.0, SVG Export Plug-In . SVG Version: 6.00 Build 0)  -->
<!DOCTYPE svg PUBLIC "-//W3C//DTD SVG 1.1//EN" "http://www.w3.org/Graphics/SVG/1.1/DTD/svg11.dtd">
<svg version="1.1" id="Layer_1" xmlns="http://www.w3.org/2000/svg" xmlns:xlink="http://www.w3.org/1999/xlink" x="0px" y="0px"
	 width="50px" height="50px" viewBox="0 0 50 50" enable-background="new 0 0 50 50" xml:space="preserve">
<path fill="none" stroke="#000000" stroke-width="2" stroke-linecap="round" stroke-linejoin="round" stroke-miterlimit="10" d="
	M3,49c0,0,9.351-1,22-1s22,1,22,1"/>
<path fill="none" stroke="#000000" stroke-width="2" stroke-linecap="round" stroke-linejoin="round" stroke-miterlimit="10" d="
	M41.019,48.25l1.978-35.626c0.021-0.386-0.067-0.769-0.253-1.101l-5.4-9.592C37.018,1.353,36.433,1,35.8,1H14.2
	c-0.633,0-1.218,0.353-1.543,0.931l-5.4,9.592c-0.186,0.332-0.274,0.715-0.253,1.101l1.972,35.589"/>
<rect x="24.828" y="16.457" width="2.145" height="11.338"/>
<path d="M37.128,18.608c-0.099-0.408-0.265-0.77-0.492-1.088c-0.229-0.317-0.528-0.574-0.901-0.77
	c-0.373-0.196-0.833-0.293-1.378-0.293h-3.754v11.338h2.146v-4.525h1.147c0.506,0,0.969-0.069,1.385-0.207
	c0.417-0.137,0.773-0.344,1.064-0.619c0.293-0.275,0.522-0.63,0.687-1.064c0.163-0.434,0.244-0.942,0.244-1.525
	C37.276,19.432,37.227,19.016,37.128,18.608z M34.737,21.173c-0.263,0.275-0.608,0.413-1.035,0.413h-0.953V18.14h0.894
	c0.537,0,0.918,0.148,1.146,0.445c0.229,0.297,0.344,0.73,0.344,1.302C35.132,20.469,35,20.898,34.737,21.173z"/>
<path d="M21.188,27.049c-0.04-0.318-0.069-0.778-0.089-1.381c-0.01-0.307-0.021-0.585-0.031-0.833
	c-0.01-0.249-0.026-0.48-0.045-0.691c-0.059-0.636-0.213-1.096-0.461-1.382c-0.249-0.285-0.64-0.47-1.177-0.556v-0.031
	c0.605-0.138,1.053-0.447,1.34-0.929c0.288-0.481,0.433-1.104,0.433-1.865c0-0.985-0.249-1.718-0.746-2.2
	c-0.496-0.481-1.191-0.722-2.085-0.722h-3.962v11.338h2.146v-4.796h1.146c0.447,0,0.765,0.127,0.953,0.381
	c0.19,0.254,0.294,0.603,0.315,1.048l0.059,2.176c0.01,0.222,0.029,0.437,0.06,0.643c0.029,0.207,0.099,0.389,0.208,0.548h2.324
	V27.7C21.377,27.583,21.247,27.366,21.188,27.049z M18.596,21.022c-0.278,0.26-0.675,0.389-1.192,0.389h-0.893V18.14h1.012
	c0.994,0,1.49,0.524,1.49,1.572C19.013,20.326,18.874,20.763,18.596,21.022z"/>
</svg>
