<?xml version="1.0" encoding="utf-8"?>
<!-- Generator: Adobe Illustrator 17.1.0, SVG Export Plug-In . SVG Version: 6.00 Build 0)  -->
<!DOCTYPE svg PUBLIC "-//W3C//DTD SVG 1.1//EN" "http://www.w3.org/Graphics/SVG/1.1/DTD/svg11.dtd">
<svg version="1.1" id="Layer_1" xmlns="http://www.w3.org/2000/svg" xmlns:xlink="http://www.w3.org/1999/xlink" x="0px" y="0px"
	 width="24px" height="24px" viewBox="0 0 24 24" style="enable-background:new 0 0 24 24;" xml:space="preserve">
<style type="text/css">
	.st0{fill:none;stroke:#000000;stroke-width:2;stroke-linejoin:round;stroke-miterlimit:10;}
</style>
<line class="st0" x1="2" y1="23" x2="22" y2="23"/>
<g>
	<path d="M8.6,8C8.4,7.8,8.2,7.7,7.8,7.7h-1v2.2h0.9c0.4,0,0.6-0.1,0.8-0.3c0.2-0.2,0.3-0.5,0.3-0.8C8.8,8.4,8.8,8.2,8.6,8z"/>
	<path d="M19,0H5L2,5l1,16h18l1-16L19,0z M10,13.2H9.1C9,13.1,8.9,13,8.9,12.8c0-0.2,0-0.4,0-0.6v-0.5c0-0.3-0.1-0.6-0.2-0.8
		c-0.2-0.2-0.4-0.3-0.7-0.3H6.9v2.7H6V7h1.8c0.6,0,1.1,0.2,1.4,0.5c0.3,0.3,0.5,0.7,0.5,1.3c0,0.3-0.1,0.6-0.2,0.9
		c-0.2,0.2-0.4,0.4-0.7,0.6c0.3,0.1,0.5,0.3,0.7,0.5s0.2,0.6,0.2,0.9v0.5c0,0.2,0,0.4,0.1,0.5C9.8,12.9,9.9,13,10,13.2L10,13.2z
		 M12.8,13.2h-0.9V7h0.9V13.2z M18.5,10.3c-0.3,0.3-0.8,0.5-1.4,0.5H16v2.5h-0.9V7h2c0.6,0,1.1,0.2,1.4,0.5C18.8,7.9,19,8.3,19,8.9
		C19,9.5,18.8,9.9,18.5,10.3z"/>
	<path d="M17.1,7.7H16v2.4h1.2c0.3,0,0.6-0.1,0.8-0.3c0.2-0.2,0.3-0.5,0.3-0.9c0-0.4-0.1-0.6-0.3-0.9C17.7,7.8,17.4,7.7,17.1,7.7z"
		/>
</g>
</svg>
