<?xml version="1.0" encoding="utf-8"?>
<!-- Generator: Adobe Illustrator 17.0.0, SVG Export Plug-In . SVG Version: 6.00 Build 0)  -->
<!DOCTYPE svg PUBLIC "-//W3C//DTD SVG 1.1//EN" "http://www.w3.org/Graphics/SVG/1.1/DTD/svg11.dtd">
<svg xmlns="http://www.w3.org/2000/svg" xmlns:xlink="http://www.w3.org/1999/xlink" version="1.1" id="Layer_1" x="0px" y="0px" width="26px" height="26px" viewBox="0 0 26 26" enable-background="new 0 0 26 26" xml:space="preserve">
<path fill="none" stroke="#000000" stroke-width="2" stroke-linecap="round" stroke-linejoin="round" stroke-miterlimit="10" d="  M1,24.998c0,0,5.1-0.72,12-0.72s12,0.72,12,0.72"/>
<g>
	<path fill="#000000" d="M8.846,8.931H8.284v1.704H8.78c0.287,0,0.508-0.067,0.662-0.203c0.154-0.135,0.231-0.363,0.231-0.682   C9.674,9.204,9.398,8.931,8.846,8.931z"/>
	<path fill="#000000" d="M17.801,8.931h-0.497v1.796h0.529c0.237,0,0.429-0.072,0.575-0.215c0.146-0.144,0.22-0.367,0.22-0.67   c0-0.298-0.063-0.524-0.191-0.678C18.312,9.009,18.1,8.931,17.801,8.931z"/>
	<path fill="#000000" d="M22.857,5.483l-3-4.998C19.677,0.184,19.352,0,19,0H7C6.648,0,6.323,0.184,6.143,0.485l-3,4.998   C3.039,5.656,2.99,5.856,3.002,6.057l1.064,18.014c0.031,0.531,0.472,0.941,0.997,0.941c0.02,0,0.04,0,0.06-0.002   c0.552-0.032,15.2-0.032,15.751,0c0.563,0.04,1.025-0.388,1.058-0.939l1.066-18.014C23.01,5.856,22.961,5.656,22.857,5.483z    M11.098,13.962H9.807c-0.061-0.083-0.1-0.178-0.116-0.285c-0.017-0.107-0.028-0.219-0.033-0.335l-0.033-1.134   c-0.012-0.232-0.069-0.414-0.175-0.546c-0.104-0.132-0.281-0.199-0.529-0.199H8.284v2.499H7.092V8.054h2.201   c0.497,0,0.883,0.126,1.158,0.376c0.276,0.251,0.415,0.633,0.415,1.146c0,0.397-0.081,0.721-0.241,0.972   c-0.16,0.251-0.408,0.412-0.745,0.484v0.016c0.298,0.044,0.516,0.141,0.654,0.29c0.138,0.149,0.224,0.389,0.256,0.72   c0.011,0.11,0.02,0.23,0.025,0.36s0.011,0.274,0.017,0.434c0.011,0.314,0.027,0.554,0.049,0.72   c0.033,0.165,0.105,0.278,0.215,0.339V13.962z M14.096,13.962h-1.191V8.054h1.191V13.962z M19.684,10.619   c-0.091,0.226-0.218,0.411-0.381,0.554c-0.162,0.144-0.359,0.251-0.591,0.323c-0.231,0.072-0.488,0.108-0.77,0.108h-0.637v2.358   h-1.192V8.054h2.085c0.303,0,0.559,0.051,0.766,0.153c0.207,0.102,0.373,0.236,0.5,0.401c0.126,0.166,0.218,0.355,0.273,0.567   c0.055,0.212,0.082,0.429,0.082,0.649C19.82,10.128,19.775,10.393,19.684,10.619z"/>
</g>
</svg>
