<?xml version="1.0" encoding="utf-8"?>
<!-- Generator: Adobe Illustrator 17.1.0, SVG Export Plug-In . SVG Version: 6.00 Build 0)  -->
<!DOCTYPE svg PUBLIC "-//W3C//DTD SVG 1.0//EN" "http://www.w3.org/TR/2001/REC-SVG-20010904/DTD/svg10.dtd">
<svg version="1.0" id="Layer_1" xmlns="http://www.w3.org/2000/svg" xmlns:xlink="http://www.w3.org/1999/xlink" x="0px" y="0px"
	 width="26px" height="26px" viewBox="0 0 26 26" style="enable-background:new 0 0 26 26;" xml:space="preserve">
<path style="fill:none;stroke:#000000;stroke-width:1.8;stroke-linecap:round;stroke-linejoin:round;stroke-miterlimit:10;" d="
	M24,12.7c0-1.4-0.8-2.6-1.8-2.6C23,6.1,20,1,13,1C6,1,3,6,3.8,10.2c-1,0-1.8,1.1-1.8,2.6c0,1.5,1.9,2.8,2.7,2.8
	C5.1,23,11.7,25,13,25c1.3,0,7-2.1,8.3-9.4C22.3,15.6,24,14.1,24,12.7z"/>
<circle cx="9.5" cy="13.5" r="1.6"/>
<circle cx="16.5" cy="13.5" r="1.6"/>
<circle cx="15.5" cy="8.5" r="0.7"/>
<circle cx="10.5" cy="8.5" r="0.7"/>
<circle cx="15.5" cy="4.5" r="0.7"/>
<circle cx="10.5" cy="4.5" r="0.7"/>
<circle cx="15.5" cy="16.5" r="0.7"/>
<circle cx="10.5" cy="16.5" r="0.7"/>
<circle cx="15.5" cy="20.5" r="0.7"/>
<circle cx="19.5" cy="8.5" r="0.7"/>
<circle cx="19.5" cy="12.5" r="0.7"/>
<circle cx="6.5" cy="12.5" r="0.7"/>
<circle cx="19.5" cy="4.5" r="0.7"/>
<circle cx="19.5" cy="16.5" r="0.7"/>
<circle cx="19.5" cy="20.5" r="0.7"/>
<circle cx="10.5" cy="20.5" r="0.7"/>
<circle cx="6.5" cy="8.5" r="0.7"/>
<circle cx="6.5" cy="4.5" r="0.7"/>
<circle cx="6.5" cy="16.5" r="0.7"/>
<circle cx="6.5" cy="20.5" r="0.7"/>
<line style="fill:none;stroke:#000000;stroke-width:0.25;stroke-linecap:round;stroke-linejoin:round;stroke-miterlimit:10;" x1="10.5" y1="1.5" x2="10.5" y2="24"/>
<line style="fill:none;stroke:#000000;stroke-width:0.25;stroke-linecap:round;stroke-linejoin:round;stroke-miterlimit:10;" x1="15.5" y1="1.5" x2="15.5" y2="24"/>
<line style="fill:none;stroke:#000000;stroke-width:0.25;stroke-linecap:round;stroke-linejoin:round;stroke-miterlimit:10;" x1="4.5" y1="4.5" x2="21" y2="4.5"/>
<line style="fill:none;stroke:#000000;stroke-width:0.25;stroke-linecap:round;stroke-linejoin:round;stroke-miterlimit:10;" x1="3.5" y1="8.5" x2="22.5" y2="8.5"/>
<line style="fill:none;stroke:#000000;stroke-width:0.25;stroke-linecap:round;stroke-linejoin:round;stroke-miterlimit:10;" x1="5" y1="16.5" x2="21.2" y2="16.5"/>
<line style="fill:none;stroke:#000000;stroke-width:0.25;stroke-linecap:round;stroke-linejoin:round;stroke-miterlimit:10;" x1="6.4" y1="20.5" x2="19.6" y2="20.5"/>
<line style="fill:none;stroke:#000000;stroke-width:0.25;stroke-linecap:round;stroke-linejoin:round;stroke-miterlimit:10;" x1="4.6" y1="12.5" x2="21.4" y2="12.5"/>
<line style="fill:none;stroke:#000000;stroke-width:0.25;stroke-linecap:round;stroke-linejoin:round;stroke-miterlimit:10;" x1="19.5" y1="3.5" x2="19.5" y2="21"/>
<line style="fill:none;stroke:#000000;stroke-width:0.25;stroke-linecap:round;stroke-linejoin:round;stroke-miterlimit:10;" x1="6.5" y1="3.5" x2="6.5" y2="21"/>
</svg>
