<?xml version="1.0" encoding="utf-8"?>
<!-- Generator: Adobe Illustrator 15.0.0, SVG Export Plug-In . SVG Version: 6.00 Build 0)  -->
<!DOCTYPE svg PUBLIC "-//W3C//DTD SVG 1.1//EN" "http://www.w3.org/Graphics/SVG/1.1/DTD/svg11.dtd">
<svg xmlns="http://www.w3.org/2000/svg" xmlns:xlink="http://www.w3.org/1999/xlink" version="1.1" id="Layer_1" x="0px" y="0px" width="26px" height="26px" viewBox="0 0 26 26" enable-background="new 0 0 26 26" xml:space="preserve">
<g>
	<path fill="#000000" d="M8.908,13.923l-8.285,8.284c-0.734,0.735-0.734,1.47,0.001,2.206l1.31,1.31   c0.867,0.867,4.999-1,6.801-2.803c1.804-1.802,3.85-5.321,3.116-6.057L8.908,13.923z"/>
</g>

<g>
	<g>
		<path fill="#000000" d="M23.864,2.366c-0.366,2.735-2.113,8.312-9.534,15.958l-4.205-4.204L20.682,3.562    C21.885,3.454,23,2.922,23.864,2.366 M24.893,0.271c0,0-2.226,2.31-4.645,2.31C16.095,6.734,8.711,14.12,8.711,14.12l5.625,5.624    C26.462,7.618,24.893,0.271,24.893,0.271L24.893,0.271z"/>
	</g>
</g>
<g>
	<g>
		<path fill="#000000" d="M24.894,0.278c0.044,0.223,0.073,8.025-8.527,17.079c0.956-1.509,2.968-6.036,2.556-8.918    c-0.195-1.363-0.015-2.355,1.45-1.395c1.951,1.28,1.153-1.396,0.836-3.122c-0.216-1.176,0.975-1.709,1.879-2.248    C23.293,1.552,24.949,0.559,24.894,0.278z"/>
	</g>
</g>
<path fill="#000000" d="M18.969,14.268c0,0-1.703,1.811-1.67,2.322c1.506-1.836-1.294,1.815,0.857,2.66  c0.577,0.227,1.463-0.437,1.351-1.524c-0.124-1.197-1.474-1.719,0.321-4.319C20.745,12.079,18.969,14.268,18.969,14.268z"/>
<path fill="#000000" d="M16.875,19.909c0,0-0.859,1.49-0.859,2.203c0,0.5,0.199,1.126,0.843,1.126c0.645,0,0.845-0.536,0.845-1.11  S16.875,19.909,16.875,19.909z"/>
</svg>
