<?xml version="1.0" encoding="utf-8"?>
<!-- Generator: Adobe Illustrator 16.0.0, SVG Export Plug-In . SVG Version: 6.00 Build 0)  -->
<!DOCTYPE svg PUBLIC "-//W3C//DTD SVG 1.1//EN" "http://www.w3.org/Graphics/SVG/1.1/DTD/svg11.dtd">
<svg version="1.1" id="Layer_1" xmlns="http://www.w3.org/2000/svg" xmlns:xlink="http://www.w3.org/1999/xlink" x="0px" y="0px"
	 width="50px" height="50px" viewBox="0 0 50 50" enable-background="new 0 0 50 50" xml:space="preserve">

<g>
	<path fill="none" stroke="#000000" stroke-width="2" stroke-linecap="round" stroke-linejoin="round" stroke-miterlimit="10" d="
		M17.761,26.633L3.103,41.289c-1.3,1.301-1.3,2.601,0.001,3.903l2.317,2.317c1.534,1.533,8.845-1.77,12.032-4.959
		c3.191-3.188,5.87-7.837,5.559-9.766"/>
</g>
<g>
	<g>
		<path fill="none" stroke="#000000" stroke-width="2" stroke-linecap="round" stroke-miterlimit="10" d="M37.823,6.566
			c-7.348,7.348-20.411,20.416-20.411,20.416l9.951,9.949C44.022,20.424,46.034,8.964,46,4.328V2.551
			C46,2.551,42.104,6.566,37.823,6.566z"/>
	</g>
</g>
<path fill="none" stroke="#000000" stroke-width="2" stroke-linecap="round" stroke-linejoin="round" stroke-miterlimit="10" d="
	M38.188,24.194c-1.146,1.41-2.158,6.828,1.718,6.828c1.894,0,2.666-1.862,2.467-3.786c-0.219-2.119-1.973-5.424-0.22-9.517"/>
<path fill="none" stroke="#000000" stroke-width="2" stroke-linecap="round" stroke-linejoin="round" stroke-miterlimit="10" d="
	M34.066,36c0,0-2.066,3.58-2.066,5.295C32,42.496,32.479,44,34.024,44c1.551,0,2.03-1.289,2.03-2.668
	C36.055,39.952,34.066,36,34.066,36z"/>
<path fill="none" stroke="#000000" stroke-width="2" stroke-linecap="round" stroke-linejoin="round" stroke-miterlimit="10" d="
	M28,24c0,0,9.703-7.659,14.326-18.56"/>
<circle cx="17" cy="34" r="1"/>
<circle cx="13" cy="38" r="1"/>
<circle cx="9" cy="42" r="1"/>
</svg>
