<?xml version="1.0" encoding="utf-8"?>
<!-- Generator: Adobe Illustrator 17.1.0, SVG Export Plug-In . SVG Version: 6.00 Build 0)  -->
<!DOCTYPE svg PUBLIC "-//W3C//DTD SVG 1.0//EN" "http://www.w3.org/TR/2001/REC-SVG-20010904/DTD/svg10.dtd">
<svg version="1.0" id="Layer_1" xmlns="http://www.w3.org/2000/svg" xmlns:xlink="http://www.w3.org/1999/xlink" x="0px" y="0px"
	 width="26px" height="26px" viewBox="0 0 26 26" style="enable-background:new 0 0 26 26;" xml:space="preserve">
<path d="M14.1,14.5c0,0.5,0.5,1.7,1.1,2.1c0.8,0.5,1.5,0.5,2.1,0.4C14.6,16.3,14.1,14.5,14.1,14.5z"/>
<path d="M11.9,14.5c0,0.5-0.5,1.7-1.1,2.1C10.1,17,9.4,17,8.8,16.9C11.4,16.3,11.9,14.5,11.9,14.5z"/>
<circle cx="9.5" cy="13.5" r="1.6"/>
<circle cx="16.5" cy="13.5" r="1.6"/>
<path style="fill:none;stroke:#000000;stroke-width:1.6;stroke-linecap:round;stroke-linejoin:round;stroke-miterlimit:10;" d="
	M4.9,10c-0.1,0.4-0.1,0.8-0.1,1.2c-1,0-1.8,1.1-1.8,2.6c0,1.5,1.5,2.8,2.3,2.8C5.5,21,10,25,13,25c3,0,7.4-4,7.7-8.4
	c1,0,2.3-1.4,2.3-2.8c0-1.4-0.8-2.6-1.8-2.6c0-0.5-0.1-1-0.2-1.4"/>
<path d="M22.8,7.6C20,0.5,15.5,0.1,13,0.1c-2.5,0-7,0.5-9.8,7.6c-1.7,4.1-1.3,9.7,0.3,15.7c0.2,0.7,3.1,0.9,5.6,0.3
	c-0.3-0.1-3.7-3.3-4.1-6.8c-0.4,0-2.2-0.9-2.2-3.1c0-2.4,2.8-2.9,2.8-2.9s0.5-5.7,1.8-7.1C8.9,2.1,9.2,2.9,13,2.9s4.1-0.8,5.7,0.8
	c1.3,1.4,1.8,7.1,1.8,7.1s2.8,0.5,2.8,2.9c0,2.2-1.8,3-2.2,3.1c-0.4,3.5-3.8,6.7-4.1,6.8c2.4,0.6,5.4,0.4,5.6-0.3
	C24.1,17.3,24.4,11.7,22.8,7.6z"/>
<path style="fill:none;stroke:#000000;stroke-width:0.873;stroke-linecap:round;stroke-linejoin:round;stroke-miterlimit:10;" d="
	M10.7,19.8c0,0,1-0.3,2.3-0.3c1.3,0,2.3,0.3,2.3,0.3"/>
</svg>
