<?xml version="1.0" encoding="utf-8"?>
<!-- Generator: Adobe Illustrator 17.1.0, SVG Export Plug-In . SVG Version: 6.00 Build 0)  -->
<!DOCTYPE svg PUBLIC "-//W3C//DTD SVG 1.1//EN" "http://www.w3.org/Graphics/SVG/1.1/DTD/svg11.dtd">
<svg version="1.1" id="Layer_1" xmlns="http://www.w3.org/2000/svg" xmlns:xlink="http://www.w3.org/1999/xlink" x="0px" y="0px"
	 width="24px" height="24px" viewBox="0 0 24 24" style="enable-background:new 0 0 24 24;" xml:space="preserve">
<style type="text/css">
	.st0{fill:none;stroke:#000000;stroke-width:2;stroke-linecap:round;stroke-linejoin:round;stroke-miterlimit:10;}
	.st1{fill:none;stroke:#000000;stroke-width:1.5;stroke-linecap:round;stroke-linejoin:round;stroke-miterlimit:10;}
</style>
<path class="st0" d="M21,10.2c0,6.1-4,12.8-9,12.8s-9-6.8-9-12.8S7,1,12,1S21,4.1,21,10.2z"/>
<path d="M20.9,8.9c-2.5-0.4-5.6-0.6-8.9-0.6S5.5,8.6,3.1,8.9C3,9.3,3,9.7,3,10.2c0,1,0.1,3,0.3,4c2.4,0.3,5.4,0.6,8.7,0.6
	s6.2-0.2,8.7-0.6c0.2-1,0.3-3,0.3-4C21,9.7,21,9.3,20.9,8.9z M15.6,12.9c-1,0-1.7-0.8-1.8-1.4c0,0,2.9-0.9,4.5-1.4
	C18.3,11.2,17.3,12.9,15.6,12.9z M5.7,10.2c1.6,0.5,4.5,1.4,4.5,1.4c-0.1,0.6-0.8,1.4-1.8,1.4C6.7,12.9,5.7,11.2,5.7,10.2z"/>
<path class="st1" d="M4.1,5.3c0,0,8.7-0.3,16.8,4.2"/>
<path class="st1" d="M5.1,13.9c0,0,5.4,3.1,13.4,4.1"/>
<path class="st1" d="M4.3,16.3c0,0,4.7,3.9,11.8,5.1"/>
<path class="st1" d="M11.9,6.1c0,0,3.6-1.5,7.8-1.2"/>
<path class="st1" d="M7.3,5.4c0,0,3.1-2.3,9.2-3.4"/>
</svg>
