<?xml version="1.0" encoding="utf-8"?>
<!-- Generator: Adobe Illustrator 17.1.0, SVG Export Plug-In . SVG Version: 6.00 Build 0)  -->
<!DOCTYPE svg PUBLIC "-//W3C//DTD SVG 1.0//EN" "http://www.w3.org/TR/2001/REC-SVG-20010904/DTD/svg10.dtd">
<svg version="1.0" id="Layer_1" xmlns="http://www.w3.org/2000/svg" xmlns:xlink="http://www.w3.org/1999/xlink" x="0px" y="0px"
	 width="26px" height="26px" viewBox="0 0 26 26" style="enable-background:new 0 0 26 26;" xml:space="preserve">
<path style="fill:none;stroke:#000000;stroke-width:1.8;stroke-linecap:round;stroke-linejoin:round;stroke-miterlimit:10;" d="
	M20.2,8C20,3.7,17.6,1,13,1C8.4,1,6,3.7,5.8,8"/>
<path style="fill:none;stroke:#000000;stroke-width:2;stroke-linecap:round;stroke-linejoin:round;stroke-miterlimit:10;" d="
	M11.2,17.2L10,18c0,0,0,3,0,4s1,1,1,1h4c0,0,1,0,1-1s0-4,0-4l-1.3-0.9"/>
<path style="fill:none;stroke:#000000;stroke-width:1.6;stroke-linecap:round;stroke-linejoin:round;stroke-miterlimit:10;" d="
	M16,20c2.1,0,4.5-1.1,3.9-3c-0.3-0.9-1.3-3.8-1.3-3.8"/>
<path style="fill:none;stroke:#000000;stroke-width:1.6;stroke-linecap:round;stroke-linejoin:round;stroke-miterlimit:10;" d="
	M20.1,5.1c0,0,4.9,0.9,4.9,8c0,4.2-1,10-1,10"/>
<path style="fill:none;stroke:#000000;stroke-width:1.6;stroke-linecap:round;stroke-linejoin:round;stroke-miterlimit:10;" d="
	M20.1,7.9c0,0,2.8,3.9,1.6,11.3c-0.2,1.2-1.5,5.9-1.5,5.9"/>
<path d="M12.9,13.6c0,0-0.3,1.2-0.7,1.6C11.9,15.5,9,17.3,6.7,14c-1.1-1.5-0.4-3.7-0.4-3.7S8.7,12.6,12.9,13.6z"/>
<path d="M13.1,13.6c0,0,0.3,1.2,0.7,1.6c0.4,0.4,3.3,2.2,5.6-1.2c1.1-1.5,0.4-3.7,0.4-3.7S17.3,12.6,13.1,13.6z"/>
<path style="fill:none;stroke:#000000;stroke-width:1.6;stroke-linecap:round;stroke-linejoin:round;stroke-miterlimit:10;" d="
	M10,20c-2.1,0-4.5-1.1-3.9-3c0.3-0.9,1.3-3.8,1.3-3.8"/>
<path style="fill:none;stroke:#000000;stroke-width:1.6;stroke-linecap:round;stroke-linejoin:round;stroke-miterlimit:10;" d="
	M5.9,5.1c0,0-4.9,0.9-4.9,8c0,4.2,1,10,1,10"/>
<path style="fill:none;stroke:#000000;stroke-width:1.6;stroke-linecap:round;stroke-linejoin:round;stroke-miterlimit:10;" d="
	M5.9,7.9c0,0-2.8,3.9-1.6,11.3C4.5,20.3,5.8,25,5.8,25"/>
</svg>
