<?xml version="1.0" encoding="utf-8"?>
<!-- Generator: Adobe Illustrator 17.1.0, SVG Export Plug-In . SVG Version: 6.00 Build 0)  -->
<!DOCTYPE svg PUBLIC "-//W3C//DTD SVG 1.0//EN" "http://www.w3.org/TR/2001/REC-SVG-20010904/DTD/svg10.dtd">
<svg version="1.0" id="Layer_1" xmlns="http://www.w3.org/2000/svg" xmlns:xlink="http://www.w3.org/1999/xlink" x="0px" y="0px"
	 width="26px" height="26px" viewBox="0 0 26 26" style="enable-background:new 0 0 26 26;" xml:space="preserve">
<path d="M14.2,13c0.6,0-0.8-2.9-1.2-2.9c-0.3,0-1.7,2.9-1.2,2.9c0.6,0,0.9-0.6,1.2-0.6C13.3,12.4,13.8,13,14.2,13z"/>
<path d="M11.3,15.3c0,0.4,0.5,2.5,0.6,4.1c0,1.7,0.5,3.5,1.1,3.5c0.7,0,1-1.5,1.1-3.2c0.1-2.2,0.7-3.5,0.6-4.3
	c0-0.4-0.5-1.4-1.8-1.4S11.3,14.6,11.3,15.3z"/>
<path d="M13,0.1C8.1,0.1,3.1,6,3.1,11s5,14.9,9.9,14.9c4.9,0,9.9-10.1,9.9-14.9S17.9,0.1,13,0.1z M18.3,14.2
	c-0.5,0.5-1.1,2.1-1.5,3.1c-1.3,3.1-1.6,6.8-3.8,6.8c-2.2,0-2.5-3.7-3.8-6.8c-0.4-1-1-2.6-1.5-3.1C6.4,13,5,13.1,5,10.7
	c0-1.1,0.7-2.5,2-3C7.5,4.4,10.4,2,13,2c2.6,0,5.5,2.5,6.1,5.7c1.2,0.5,2,1.9,2,3C21,13.1,19.6,13,18.3,14.2z"/>
<path d="M17.4,11.9c0.9,0,1.9-1,1.4-2c-0.3-0.5-0.8-0.6-1.3-0.9c-0.7-0.4-1.3-1.1-1.6-1.9c-0.3-0.6-0.7-1.4-1.3-1.1
	c-0.9,0.4-0.4,2.2-0.2,3C14.9,10.5,15.8,11.9,17.4,11.9z"/>
<path d="M8.6,11.9c-0.9,0-1.9-1-1.4-2C7.4,9.5,8,9.4,8.5,9.1C9.2,8.7,9.7,8,10.1,7.2c0.3-0.6,0.7-1.4,1.3-1.1c0.9,0.4,0.4,2.2,0.2,3
	C11.1,10.5,10.2,11.9,8.6,11.9z"/>
</svg>
