<?xml version="1.0" encoding="utf-8"?>
<!-- Generator: Adobe Illustrator 17.0.0, SVG Export Plug-In . SVG Version: 6.00 Build 0)  -->
<!DOCTYPE svg PUBLIC "-//W3C//DTD SVG 1.1//EN" "http://www.w3.org/Graphics/SVG/1.1/DTD/svg11.dtd">
<svg xmlns="http://www.w3.org/2000/svg" xmlns:xlink="http://www.w3.org/1999/xlink" version="1.1" id="Layer_1" x="0px" y="0px" width="26px" height="26px" viewBox="0 0 26 26" enable-background="new 0 0 26 26" xml:space="preserve">

<path fill="#000000" d="M13,18.934C10.653,18.934,9.059,18,8.5,18C7.119,18,6,19.119,6,20.5c0,1.381,1.766,2.25,2.844,3  C9.922,24.25,11.554,26,13,26s3.695-2.014,4.141-2.391C17.953,22.922,20,21.881,20,20.5c0-1.381-1.119-2.5-2.5-2.5  C16.941,18,15.347,18.934,13,18.934z M16.194,19.809c0.663-0.422,1.504-0.288,1.878,0.298c0.374,0.587,0.14,1.406-0.522,1.828  c-0.663,0.422-1.504,0.289-1.878-0.297C15.297,21.05,15.532,20.231,16.194,19.809z M10.328,21.637  c-0.374,0.586-1.215,0.719-1.878,0.297c-0.662-0.422-0.897-1.24-0.522-1.828c0.374-0.586,1.214-0.72,1.878-0.298  C10.468,20.231,10.703,21.05,10.328,21.637z"/>
<line fill="none" stroke="#000000" stroke-width="2" stroke-linecap="round" stroke-linejoin="round" stroke-miterlimit="10" x1="13" y1="19" x2="13" y2="1"/>
<line fill="none" stroke="#000000" stroke-width="2" stroke-linecap="round" stroke-linejoin="round" stroke-miterlimit="10" x1="7" y1="2" x2="19" y2="2"/>
<line fill="none" stroke="#000000" stroke-width="2" stroke-linecap="round" stroke-linejoin="round" stroke-miterlimit="10" x1="5" y1="6" x2="21" y2="6"/>
<line fill="none" stroke="#000000" stroke-width="2" stroke-linecap="round" stroke-linejoin="round" stroke-miterlimit="10" x1="6" y1="10" x2="20" y2="10"/>
<line fill="none" stroke="#000000" stroke-width="2" stroke-linecap="round" stroke-linejoin="round" stroke-miterlimit="10" x1="8" y1="14" x2="10" y2="14"/>
<line fill="none" stroke="#000000" stroke-width="2" stroke-linecap="round" stroke-linejoin="round" stroke-miterlimit="10" x1="16" y1="14" x2="18" y2="14"/>
</svg>
