<?xml version="1.0" encoding="utf-8"?>
<!-- Generator: Adobe Illustrator 18.0.0, SVG Export Plug-In . SVG Version: 6.00 Build 0)  -->
<!DOCTYPE svg PUBLIC "-//W3C//DTD SVG 1.0//EN" "http://www.w3.org/TR/2001/REC-SVG-20010904/DTD/svg10.dtd">
<svg version="1.0" id="Layer_1" xmlns="http://www.w3.org/2000/svg" xmlns:xlink="http://www.w3.org/1999/xlink" x="0px" y="0px"
	 viewBox="0 0 50 50" enable-background="new 0 0 50 50" xml:space="preserve">
<path fill="none" stroke="#000000" stroke-width="2" stroke-linecap="round" stroke-linejoin="round" stroke-miterlimit="10" d="
	M25,35.8c-4.4,0-7.3-1.8-8.4-1.8c-2.6,0-4.6,2.1-4.6,4.7s3.3,4.2,5.3,5.6c2,1.4,5,4.7,7.7,4.7c2.7,0,6.9-3.8,7.7-4.5
	c1.5-1.3,5.3-3.2,5.3-5.8S35.9,34,33.4,34C32.3,34,29.4,35.8,25,35.8z"/>
<line fill="none" stroke="#000000" stroke-width="2" stroke-linecap="round" stroke-linejoin="round" stroke-miterlimit="10" x1="25" y1="35" x2="25" y2="1"/>
<line fill="none" stroke="#000000" stroke-width="2" stroke-linecap="round" stroke-linejoin="round" stroke-miterlimit="10" x1="14" y1="4" x2="36" y2="4"/>
<line fill="none" stroke="#000000" stroke-width="2" stroke-linecap="round" stroke-linejoin="round" stroke-miterlimit="10" x1="10" y1="11" x2="40" y2="11"/>
<line fill="none" stroke="#000000" stroke-width="2" stroke-linecap="round" stroke-linejoin="round" stroke-miterlimit="10" x1="14" y1="18" x2="36" y2="18"/>
<line fill="none" stroke="#000000" stroke-width="2" stroke-linecap="round" stroke-linejoin="round" stroke-miterlimit="10" x1="17" y1="25" x2="33" y2="25"/>
<g>
	<path d="M32.4,39.1c0.1,0,0.2,0,0.3,0.1c0,0,0,0.1,0,0.2c0,0.1-0.1,0.3-0.4,0.4c-0.1,0.1-0.3,0.1-0.5,0.1c-0.1,0-0.2,0-0.3-0.1
		c-0.1-0.1,0-0.4,0.4-0.6C32.1,39.2,32.3,39.1,32.4,39.1 M32.4,37.1c-0.5,0-1,0.1-1.5,0.5c-1.2,0.8-1.7,2.3-1,3.4
		c0.4,0.7,1.2,1,1.9,1c0.5,0,1-0.1,1.5-0.5c1.2-0.8,1.7-2.3,1-3.4C33.9,37.5,33.2,37.1,32.4,37.1L32.4,37.1z"/>
</g>
<g>
	<path d="M17.6,39.1c0.1,0,0.3,0.1,0.5,0.1c0.3,0.2,0.4,0.5,0.4,0.6c0,0-0.1,0.1-0.3,0.1c-0.1,0-0.3-0.1-0.5-0.1
		c-0.3-0.2-0.3-0.4-0.4-0.4c0-0.1,0-0.1,0-0.2C17.3,39.2,17.4,39.1,17.6,39.1 M17.6,37.1c-0.8,0-1.5,0.3-1.9,1
		c-0.7,1.1-0.3,2.6,1,3.4c0.5,0.3,1,0.5,1.5,0.5c0.8,0,1.5-0.3,1.9-1c0.7-1.1,0.3-2.6-1-3.4C18.6,37.3,18.1,37.1,17.6,37.1
		L17.6,37.1z"/>
</g>
</svg>
