<?xml version="1.0" encoding="utf-8"?>
<!-- Generator: Adobe Illustrator 17.0.0, SVG Export Plug-In . SVG Version: 6.00 Build 0)  -->
<!DOCTYPE svg PUBLIC "-//W3C//DTD SVG 1.1//EN" "http://www.w3.org/Graphics/SVG/1.1/DTD/svg11.dtd">
<svg xmlns="http://www.w3.org/2000/svg" xmlns:xlink="http://www.w3.org/1999/xlink" version="1.1" id="Layer_1" x="0px" y="0px" width="26px" height="26px" viewBox="0 0 26 26" enable-background="new 0 0 26 26" xml:space="preserve">
<path fill="#000000" d="M17.092,9.092c0,2.26-1.832,5.456-4.092,5.456s-4.092-3.196-4.092-5.456S10.74,5,13,5  S17.092,6.832,17.092,9.092z"/>
<path fill="#000000" d="M16.842,16.006C16.842,18.34,15.122,21,13,21s-3.842-2.66-3.842-4.994s1.72-3.595,3.842-3.595  S16.842,13.672,16.842,16.006z"/>
<polyline fill="none" stroke="#000000" stroke-width="2" stroke-linecap="round" stroke-linejoin="round" stroke-miterlimit="10" points="  15,14 20,20 22,25 "/>
<polyline fill="none" stroke="#000000" stroke-width="2" stroke-linecap="round" stroke-linejoin="round" stroke-miterlimit="10" points="  14.688,10 19,5 21,1 "/>
<polyline fill="none" stroke="#000000" stroke-width="2" stroke-linecap="round" stroke-linejoin="round" stroke-miterlimit="10" points="  14.688,10 20,10 24,8 "/>
<polyline fill="none" stroke="#000000" stroke-width="2" stroke-linecap="round" stroke-linejoin="round" stroke-miterlimit="10" points="  14,11 20,14 25,14 "/>
<polyline fill="none" stroke="#000000" stroke-width="2" stroke-linecap="round" stroke-linejoin="round" stroke-miterlimit="10" points="  11,14 6,20 4,25 "/>
<polyline fill="none" stroke="#000000" stroke-width="2" stroke-linecap="round" stroke-linejoin="round" stroke-miterlimit="10" points="  11.312,10 7,5 5,1 "/>
<polyline fill="none" stroke="#000000" stroke-width="2" stroke-linecap="round" stroke-linejoin="round" stroke-miterlimit="10" points="  11.312,10 6,10 2,8 "/>
<polyline fill="none" stroke="#000000" stroke-width="2" stroke-linecap="round" stroke-linejoin="round" stroke-miterlimit="10" points="  12,11 6,14 1,14 "/>
<path fill="#000000" d="M14,4v4c0.552,0,1-0.447,1-1V6C15,4.496,14.552,4,14,4z"/>
<path fill="#000000" d="M12,4v4c-0.552,0-1-0.447-1-1V6C11,4.496,11.448,4,12,4z"/>
</svg>
