<?xml version="1.0" encoding="utf-8"?>
<!-- Generator: Adobe Illustrator 17.0.0, SVG Export Plug-In . SVG Version: 6.00 Build 0)  -->
<!DOCTYPE svg PUBLIC "-//W3C//DTD SVG 1.1//EN" "http://www.w3.org/Graphics/SVG/1.1/DTD/svg11.dtd">
<svg version="1.1" id="Layer_1" xmlns="http://www.w3.org/2000/svg" xmlns:xlink="http://www.w3.org/1999/xlink" x="0px" y="0px"
	 width="50px" height="50px" viewBox="0 0 50 50" enable-background="new 0 0 50 50" xml:space="preserve">
<path fill="none" stroke="#000000" stroke-width="2" stroke-linecap="round" stroke-miterlimit="10" d="M18.963,22.883
	C17.74,20.949,17,18.647,17,16.71c0-4.26,3.582-7.714,8-7.714s8,3.454,8,7.714c0,1.938-0.741,4.241-1.965,6.176"/>
<path fill="none" stroke="#000000" stroke-width="2" stroke-linecap="round" stroke-miterlimit="10" d="M34,29.371
	C34,34.805,29.971,41,25,41s-9-6.195-9-11.629S20.029,21,25,21S34,23.936,34,29.371z"/>
<polyline fill="none" stroke="#000000" stroke-width="2" stroke-linecap="round" stroke-miterlimit="10" points="33.587,32.5 
	40,38.996 42,48.996 "/>
<polyline fill="none" stroke="#000000" stroke-width="2" stroke-linecap="round" stroke-miterlimit="10" points="32.547,14.159 
	37,8.996 41,0.996 "/>
<polyline fill="none" stroke="#000000" stroke-width="2" stroke-linecap="round" stroke-miterlimit="10" points="32.703,18.998 
	40,18.995 48.999,13.992 "/>
<polyline fill="none" stroke="#000000" stroke-width="2" stroke-linecap="round" stroke-miterlimit="10" points="31.634,21.84 
	39,26.996 49,30.996 "/>
<path fill="none" stroke="#000000" stroke-width="2" stroke-linecap="round" stroke-miterlimit="10" d="M28.964,10.011
	C28.785,7.767,27.974,6.996,27,6.996v2.248"/>
<polyline fill="none" stroke="#000000" stroke-width="2" stroke-linecap="round" stroke-miterlimit="10" points="16.413,32.5 
	10,38.996 8,48.996 "/>
<polyline fill="none" stroke="#000000" stroke-width="2" stroke-linecap="round" stroke-miterlimit="10" points="17.453,14.159 
	13,8.996 9,0.996 "/>
<polyline fill="none" stroke="#000000" stroke-width="2" stroke-linecap="round" stroke-miterlimit="10" points="17.297,18.998 
	10,18.995 1.001,13.992 "/>
<polyline fill="none" stroke="#000000" stroke-width="2" stroke-linecap="round" stroke-miterlimit="10" points="18.366,21.84 
	11,26.996 1,30.996 "/>
<path fill="none" stroke="#000000" stroke-width="2" stroke-linecap="round" stroke-miterlimit="10" d="M21.036,10.011
	c0.178-2.244,0.99-3.015,1.964-3.015v2.248"/>
</svg>
