<?xml version="1.0" encoding="utf-8"?>
<!-- Generator: Adobe Illustrator 15.0.0, SVG Export Plug-In . SVG Version: 6.00 Build 0)  -->
<!DOCTYPE svg PUBLIC "-//W3C//DTD SVG 1.1//EN" "http://www.w3.org/Graphics/SVG/1.1/DTD/svg11.dtd">
<svg xmlns="http://www.w3.org/2000/svg" xmlns:xlink="http://www.w3.org/1999/xlink" version="1.1" id="Layer_1" x="0px" y="0px" width="26px" height="26px" viewBox="0 0 26 26" enable-background="new 0 0 26 26" xml:space="preserve">

<g>
	<path fill="#000000" d="M13,2.126c6.525,0,10.813,5.28,10.813,11.806c0,3.687-1.98,5.054-4.929,5.054   c-0.592,0-1.223-0.055-1.884-0.157c0,0,0,3.224,0,4.15c0,1.486-0.475,1.971-0.96,1.971c-0.507,0-1.024-0.528-1.024-0.996   c0,0-0.444,0.902-1.042,0.902c-0.298,0-0.635-0.226-0.974-0.902c-0.339,0.677-0.674,0.902-0.972,0.902   c-0.594,0-1.034-0.902-1.034-0.902c0,0.49-0.512,1.01-1.017,1.01C9.486,24.963,9,24.47,9,22.979c0-0.915,0-4.158,0-4.158   c-0.676,0.11-1.318,0.169-1.92,0.169c-2.935,0-4.893-1.4-4.893-5.058C2.188,7.406,6.476,2.126,13,2.126 M13,0.126   c-7.305,0-12.813,5.936-12.813,13.806c0,4.458,2.481,7.026,6.813,7.058v1.989c0,3.872,2.673,3.984,2.978,3.984   c0.413,0,0.812-0.093,1.178-0.258c0.271,0.096,0.563,0.15,0.873,0.15c0.294,0,0.631-0.046,0.981-0.187   c0.371,0.148,0.711,0.187,0.964,0.187c0.319,0,0.619-0.058,0.896-0.158c0.363,0.161,0.761,0.252,1.17,0.252   c0.303,0,2.96-0.111,2.96-3.971v-1.993c4.331-0.045,6.813-2.61,6.813-7.054C25.813,6.062,20.305,0.126,13,0.126L13,0.126z"/>
</g>
<path fill="#000000" d="M20.926,11.865c0.03,1.05-0.176,3.99-4.617,3.99c-1.827,0-2.208-0.583-2.208-2.444  c0-1.15,1.074-2.257,3.059-3.712C19.79,7.77,20.868,9.853,20.926,11.865z"/>
<path fill="#000000" d="M5.074,11.865c-0.03,1.05,0.176,3.99,4.617,3.99c1.827,0,2.208-0.583,2.208-2.444  c0-1.15-1.074-2.257-3.059-3.712C6.21,7.77,5.132,9.853,5.074,11.865z"/>
<path fill="#000000" d="M13.984,17.641C13.656,16.719,13,17.047,13,17.75c0-0.672-0.688-0.906-0.906-0.281  c-0.675,1.929-1.883,3.461-0.273,3.461c0.719,0,1.18-1.023,1.18-1.023s0.219,1.063,1.281,1.063  C15.641,20.969,14.682,19.599,13.984,17.641z"/>
</svg>
