<?xml version="1.0" encoding="utf-8"?>
<!-- Generator: Adobe Illustrator 16.0.0, SVG Export Plug-In . SVG Version: 6.00 Build 0)  -->
<!DOCTYPE svg PUBLIC "-//W3C//DTD SVG 1.1//EN" "http://www.w3.org/Graphics/SVG/1.1/DTD/svg11.dtd">
<svg version="1.1" id="Layer_1" xmlns="http://www.w3.org/2000/svg" xmlns:xlink="http://www.w3.org/1999/xlink" x="0px" y="0px"
	 width="50px" height="50px" viewBox="0 0 50 50" enable-background="new 0 0 50 50" xml:space="preserve">

<path fill="none" stroke="#000000" stroke-width="1.9571" stroke-linecap="round" stroke-linejoin="round" stroke-miterlimit="10" d="
	M39.972,21.241C40.032,23.198,40,29,31.989,29C28.447,29,27,27.671,27,24.202c0-3.316,5.004-8.201,9.732-8.201
	C38.837,16.001,39.895,18.62,39.972,21.241z"/>
<path fill="none" stroke="#000000" stroke-width="1.9571" stroke-linecap="round" stroke-linejoin="round" stroke-miterlimit="10" d="
	M10.028,21.241C9.968,23.198,10,29,18.011,29C21.553,29,23,27.671,23,24.202c0-3.316-5.004-8.201-9.732-8.201
	C11.163,16.001,10.105,18.62,10.028,21.241z"/>
<g>
	<path d="M26.505,31.871c-0.5-1.42-1.497-0.914-1.497,0.169c0-1.035-1.046-1.396-1.378-0.433c-1.024,2.973-2.861,5.332-0.415,5.332
		c1.092,0,1.793-1.576,1.793-1.576S25.339,37,26.955,37C29.021,37,27.564,34.89,26.505,31.871z"/>
</g>
<path fill="none" stroke="#000000" stroke-width="2" stroke-linecap="round" stroke-linejoin="round" stroke-miterlimit="10" d="
	M25,44c0,1.104,0.896,2,2,2s2-0.896,2-2"/>
<path fill="none" stroke="#000000" stroke-width="2" stroke-linecap="round" stroke-linejoin="round" stroke-miterlimit="10" d="
	M21,44c0,1.104,0.896,2,2,2s2-0.896,2-2"/>
<path fill="none" stroke="#000000" stroke-width="2" stroke-linecap="round" stroke-linejoin="round" stroke-miterlimit="10" d="
	M29,44c0,1.104,0.896,2,2,2s2-0.896,2-2v-9c1.285,0.199,2.28,0.744,3.429,0.744c5.725,0,9.571-2.655,9.571-9.815
	C46,13.255,37.674,3,25,3C12.328,3,4,13.255,4,25.929c0,7.102,3.804,9.823,9.504,9.823c1.167,0,2.184-0.537,3.496-0.752v9
	c0,1.104,0.896,2,2,2s2-0.896,2-2"/>
</svg>
