<?xml version="1.0" encoding="utf-8"?>
<!-- Generator: Adobe Illustrator 15.0.0, SVG Export Plug-In . SVG Version: 6.00 Build 0)  -->
<!DOCTYPE svg PUBLIC "-//W3C//DTD SVG 1.1//EN" "http://www.w3.org/Graphics/SVG/1.1/DTD/svg11.dtd">
<svg xmlns="http://www.w3.org/2000/svg" xmlns:xlink="http://www.w3.org/1999/xlink" version="1.1" id="Layer_1" x="0px" y="0px" width="26px" height="26px" viewBox="0 0 26 26" enable-background="new 0 0 26 26" xml:space="preserve">

<path fill="none" stroke="#000000" stroke-width="1.6" stroke-linecap="round" stroke-linejoin="round" stroke-miterlimit="10" d="  M4.944,11.942C4.288,11.268,3.794,11,3.5,11c-0.983,0-0.213,2.944,0.125,3.75c0.673,1.602,1.729,2.82,2.481,2.82  C6.399,22.018,11,25,13,25s6.601-2.982,6.894-7.43c0.752,0,1.854-1.219,2.528-2.82C22.76,13.946,23.488,11,22.5,11  c-0.299,0-0.782,0.264-1.444,0.942"/>
<path fill="#000000" d="M14.037,14.08c0,1.086,1.093,1.883,2.44,1.883C17.826,15.963,19,14.085,19,13L14.037,14.08z"/>
<path fill="#000000" d="M7,13c0,1.085,1.916,2.963,3,2.963s1.962-0.784,1.962-1.869L7,13z"/>
<path fill="#000000" d="M5.934,13.303C5.65,7.973,6.302,6.646,7.031,5.79C7.866,4.81,11,4,13,10c2-6,5.164-5.28,5.969-4.21  c0.971,1.291,1.123,3.805,1.123,7.513c0.554-0.323,1.867-1.67,1.867-4.511c0-6.375-2.94-8.625-8.92-8.625S4.063,3.221,4.063,8.792  C4.063,11.94,5.115,12.484,5.934,13.303z"/>
<path fill="#000000" d="M9,19c0,0,1.982,0.297,4.008,0.297C15.033,19.297,17,19,17,19s-1.99,1.719-3.992,1.719  C11.007,20.719,9,19,9,19z"/>
<path fill="#000000" d="M13.681,19.426L15,19.411V22C15,22,13.681,20.706,13.681,19.426z"/>
<path fill="#000000" d="M12.319,19.426L11,19.411V22C11,22,12.319,20.706,12.319,19.426z"/>
</svg>
