<?xml version="1.0" encoding="utf-8"?>
<!-- Generator: Adobe Illustrator 17.1.0, SVG Export Plug-In . SVG Version: 6.00 Build 0)  -->
<!DOCTYPE svg PUBLIC "-//W3C//DTD SVG 1.1//EN" "http://www.w3.org/Graphics/SVG/1.1/DTD/svg11.dtd">
<svg version="1.1" id="Layer_1" xmlns="http://www.w3.org/2000/svg" xmlns:xlink="http://www.w3.org/1999/xlink" x="0px" y="0px"
	 width="24px" height="24px" viewBox="0 0 24 24" style="enable-background:new 0 0 24 24;" xml:space="preserve">
<style type="text/css">
	.st0{fill:none;stroke:#000000;stroke-width:2;stroke-miterlimit:10;}
</style>
<path d="M13,13.1c0,1.1,1.1,1.9,2.4,1.9c1.3,0,2.5-1.9,2.5-3L13,13.1z"/>
<path d="M6,12c0,1.1,1.9,3,3,3s2-0.8,2-1.9L6,12z"/>
<path d="M8,17c0,0,2,0.3,4,0.3c2,0,4-0.3,4-0.3s-2,1.7-4,1.7S8,17,8,17z"/>
<path d="M12.7,17.4l1.3,0V20C14,20,12.7,18.7,12.7,17.4z"/>
<path d="M11.3,17.4l-1.3,0V20C10,20,11.3,18.7,11.3,17.4z"/>
<path class="st0" d="M5,11c-0.8,0-2-0.7-2.6-1C2.2,9.9,2,10.2,2,10.4C2.2,11.8,2.9,16,5,16c0.3,4.4,5,7,7,7s6.7-2.6,7-7
	c2.1,0,2.8-4.2,3-5.6c0-0.2-0.2-0.5-0.4-0.4c-0.6,0.3-1.8,1-2.6,1"/>
<path d="M12,0C5,0,3,3.4,3,7.8C3,10.6,5,12,5,12c0-3.7,0.8-6,3-6c0.7,0,3-0.1,4,4c1-4.1,3.3-4,4-4c2.2,0,3,2.3,3,6c0,0,2-1.4,2-4.2
	C21,3.4,19,0,12,0z"/>
</svg>
