<?xml version="1.0" encoding="utf-8"?>
<!-- Generator: Adobe Illustrator 15.0.0, SVG Export Plug-In . SVG Version: 6.00 Build 0)  -->
<!DOCTYPE svg PUBLIC "-//W3C//DTD SVG 1.1//EN" "http://www.w3.org/Graphics/SVG/1.1/DTD/svg11.dtd">
<svg xmlns="http://www.w3.org/2000/svg" xmlns:xlink="http://www.w3.org/1999/xlink" version="1.1" id="Layer_1" x="0px" y="0px" width="26px" height="26px" viewBox="0 0 26 26" enable-background="new 0 0 26 26" xml:space="preserve">

<path fill="#000000" d="M18.998,9.893l-0.67,0.781l1.547,1.298C19.875,11.972,19.763,10.535,18.998,9.893z"/>
<path fill="#000000" d="M2.333,26c0.542-4.25,2.769-9.355,3.492-10.641c-0.534-0.694-1.464-1.227-2.666-1.648  c-0.145-0.051-0.386-0.217,0.182-0.596c0.808-0.539,1.406-1.287,3.95-0.928c0.021,0.003,0.749-0.809,1.257-1.317  c0.7-0.7,1.319-1.323,2.214-1.616c0.864-0.283,1.646-0.389,2.424,0c0.628-0.718,1.349-1.493,2.094-1.975  c0.51-0.329,1.203-0.592,1.844-0.592c0.375-0.406,0.488-0.542,0.641-0.672c0.688-0.591,1.662,0.334,1.365,1.398  c1.158-0.321,1.736,1.672-0.527,4.055c-0.298,0.313-0.402,0.632-0.563,0.846c-0.616,0.823-1.115,2.164-0.582,2.43  c0.828-0.347,2.379-1.881,3.271-2.673c1.094,1.094-0.417,3.366-2.854,5.428c-1.619,1.37-1.813,1.438-2.875,2.625  c-1.247,1.394,1.5,3.25,2,5.875H2.333z"/>
<path fill="none" stroke="#000000" stroke-width="2" stroke-linecap="round" stroke-linejoin="round" stroke-miterlimit="10" d="  M2.133,18.098C1.406,16.551,1,14.822,1,13C1,6.372,6.372,1,13,1s12,5.372,12,12c0,4.346-2.311,8.152-5.77,10.258"/>
</svg>
