<?xml version="1.0" encoding="utf-8"?>
<!-- Generator: Adobe Illustrator 17.1.0, SVG Export Plug-In . SVG Version: 6.00 Build 0)  -->
<!DOCTYPE svg PUBLIC "-//W3C//DTD SVG 1.1//EN" "http://www.w3.org/Graphics/SVG/1.1/DTD/svg11.dtd">
<svg version="1.1" id="Layer_1" xmlns="http://www.w3.org/2000/svg" xmlns:xlink="http://www.w3.org/1999/xlink" x="0px" y="0px"
	 width="24px" height="24px" viewBox="0 0 24 24" style="enable-background:new 0 0 24 24;" xml:space="preserve">
<path d="M17.6,9.6L17,10.3l1.4,1.2C18.4,11.5,18.3,10.2,17.6,9.6z"/>
<path d="M2.7,24c0.5-3.8,2.5-8.4,3.1-9.5c-0.5-0.6-1.3-1.1-2.4-1.5c-0.1,0-0.3-0.2,0.2-0.5c0.7-0.5,1.3-1.1,3.5-0.8
	c0,0,0.7-0.7,1.1-1.2c0.6-0.6,1.2-1.2,2-1.4c0.8-0.3,1.5-0.3,2.2,0c0.6-0.6,1.2-1.3,1.9-1.8c0.5-0.3,1.1-0.5,1.6-0.5
	c0.3-0.4,0.4-0.5,0.6-0.6c0.6-0.5,1.5,0.3,1.2,1.2c1-0.3,1.6,1.5-0.5,3.6c-0.3,0.3-0.4,0.6-0.5,0.8c-0.6,0.7-1,1.9-0.5,2.2
	c0.7-0.3,2.1-1.7,2.9-2.4c1,1-0.4,3-2.5,4.8c-1.4,1.2-1.6,1.3-2.6,2.3c-1.1,1.2,1.3,2.9,1.8,5.2H2.7z"/>
<path d="M12,0C5.4,0,0,5.4,0,12c0,2.9,1,5.5,2.7,7.6C3,18.8,3.2,18,3.5,17.3C2.6,15.7,2,13.9,2,12C2,6.5,6.5,2,12,2s10,4.5,10,10
	c0,4.2-2.6,7.8-6.3,9.3c0.3,0.5,0.7,1.1,0.9,1.8C20.9,21.3,24,17,24,12C24,5.4,18.6,0,12,0z"/>
</svg>
