<?xml version="1.0" encoding="utf-8"?>
<!-- Generator: Adobe Illustrator 17.1.0, SVG Export Plug-In . SVG Version: 6.00 Build 0)  -->
<!DOCTYPE svg PUBLIC "-//W3C//DTD SVG 1.1//EN" "http://www.w3.org/Graphics/SVG/1.1/DTD/svg11.dtd">
<svg version="1.1" id="Layer_1" xmlns="http://www.w3.org/2000/svg" xmlns:xlink="http://www.w3.org/1999/xlink" x="0px" y="0px"
	 width="24px" height="24px" viewBox="0 0 24 24" style="enable-background:new 0 0 24 24;" xml:space="preserve">
<path d="M19.4,14.2c0.4,1.2,0.7,2.3,0.7,2.9c0,2.5-3.3,4.2-8.2,4.2s-8.2-1.7-8.2-4.2c0-0.5,0.3-1.6,0.8-2.9c-2.7,1-4.6,2.5-4.6,4.3
	c0,3,5.4,5.6,12,5.6c6.6,0,12-2.5,12-5.6C24,16.7,22.2,15.2,19.4,14.2z"/>
<g>
	<path d="M15.7,7.7c-0.4-0.8-0.8-1.7-1-2.5c-0.2-1-0.3-1.5-0.1-1.6c0.1-0.1,0.5,1.1,0.8,1c0.5-0.3-0.1-1.6,0.2-2
		c0.4-0.6,1.1,5,3.2,5.5c0.6,0.1,0.5-0.4,0.3-0.5c-1.2-0.6-0.8-7.4-4.2-7.4C13,0.1,11.9,0.5,9.6,5C7.2,9.8,5,15.8,5,17
		c0,1.8,2.5,3,7,3c4.5,0,7-1.2,7-3C19,15.9,17.9,12.5,15.7,7.7z"/>
</g>
</svg>
