<?xml version="1.0" encoding="utf-8"?>
<!-- Generator: Adobe Illustrator 15.0.0, SVG Export Plug-In . SVG Version: 6.00 Build 0)  -->
<!DOCTYPE svg PUBLIC "-//W3C//DTD SVG 1.1//EN" "http://www.w3.org/Graphics/SVG/1.1/DTD/svg11.dtd">
<svg xmlns="http://www.w3.org/2000/svg" xmlns:xlink="http://www.w3.org/1999/xlink" version="1.1" id="Layer_1" x="0px" y="0px" width="26px" height="26px" viewBox="0 0 26 26" enable-background="new 0 0 26 26" xml:space="preserve">

<path fill="#000000" d="M21.051,15.335c0.471,1.317,0.801,2.476,0.801,3.146c0,2.716-3.557,4.54-8.852,4.54  c-5.294,0-8.852-1.824-8.852-4.54c0-0.544,0.324-1.685,0.842-3.134c-2.953,1.087-4.849,2.756-4.849,4.631  c0,3.275,5.774,5.931,12.897,5.931s12.897-2.655,12.897-5.931C25.936,18.096,24.023,16.422,21.051,15.335z"/>
<g>
	<path fill="#000000" d="M16.984,8.376c-0.404-0.85-0.895-1.816-1.121-2.732C15.597,4.56,15.5,4.054,15.795,3.857   c0.103-0.069,0.527,1.206,0.859,1.134c0.515-0.275-0.094-1.749,0.205-2.199c0.468-0.702,1.16,5.452,3.445,5.915   c0.612,0.124,0.564-0.437,0.289-0.579c-1.313-0.676-0.867-8.06-4.52-8.06c-1.938,0-3.129,0.438-5.64,5.342   c-2.664,5.208-5.286,11.727-5.286,12.986c0,1.955,2.963,3.541,7.852,3.541c4.887,0,7.852-1.586,7.852-3.541   C20.852,17.238,19.435,13.524,16.984,8.376z"/>
</g>
</svg>
