<?xml version="1.0" encoding="utf-8"?>
<!-- Generator: Adobe Illustrator 17.1.0, SVG Export Plug-In . SVG Version: 6.00 Build 0)  -->
<!DOCTYPE svg PUBLIC "-//W3C//DTD SVG 1.1//EN" "http://www.w3.org/Graphics/SVG/1.1/DTD/svg11.dtd">
<svg version="1.1" id="Layer_1" xmlns="http://www.w3.org/2000/svg" xmlns:xlink="http://www.w3.org/1999/xlink" x="0px" y="0px"
	 width="24px" height="24px" viewBox="0 0 24 24" style="enable-background:new 0 0 24 24;" xml:space="preserve">
<style type="text/css">
	.st0{fill:none;stroke:#000000;stroke-width:2;stroke-linecap:round;stroke-linejoin:round;stroke-miterlimit:10;}
</style>
<path class="st0" d="M5,10.2c-0.6,0.3-1,1.2-1,2.2C4,13.8,5.1,15,5.8,15c0.9,5,5,6,6.2,6s5.3-0.9,6.2-6c0.9,0,1.8-1.3,1.8-2.6
	c0-1.1-0.5-1.9-1.1-2.3"/>
<path d="M4.1,11.4c0.1,0.3,1.9-0.4,2.1-0.6C6.5,10.3,6.4,9.6,6.4,9c0-0.9-0.1-1.8,0-2.7c0.1-0.4,0.1-1,0.2-1.4
	c0.2-0.6,0.6-0.3,1.1-0.3c0.5,0,0.5-0.4,0.9-0.5C9.4,3.9,9.7,5,9.8,5.5c0.1,0.2,0.1,0.8,0.4,1c0.4,0.2,0.6-0.1,0.7-0.5
	c0.2-0.6-0.3-1.7,0.2-2.2c1.5-1.5,1.5,2.9,2.3,2.9c0.4,0,0.5-0.5,0.6-0.8c0.2-0.6,0.1-1.3,0.5-1.9c0.6-1.1,2-1,2.8-0.1
	c1,1.3,0.6,2.8,0.5,4.2c-0.1,1.6,0.3,3.1,2.1,3.2c0,0,0.4,0,0.4,0c0.1-0.6,0.1-1.3,0.2-1.9c0-0.4,0.3-0.7,0.3-1.1
	c0-0.3-0.3-0.6-0.3-0.8c0-0.4,0.4-0.5,0.3-0.9c0-0.5-0.4-1.1-0.7-1.5c-0.1-0.2-0.7-0.7-0.7-0.9c0-0.2,0.1-0.2,0.1-0.4
	c0.1-0.3,0.2-0.2,0.1-0.5c0-0.1-0.3-0.3-0.4-0.3c-1.1-0.8-1.9-1.7-3.2-2.2c-1.2-0.5-2.5-0.7-3.8-0.7c-2.3,0-4.5,0.9-6.5,1.8
	C5.3,2,4.9,2.1,4.7,2.4C4.3,2.9,4.9,2.8,5,3.3c0.2,0.5-0.9,1.5-1.2,2C3.6,5.6,3.4,5.9,3.4,6.4c0,0.4,0.3,0.7,0.2,1
	c0,0.4-0.3,0.8-0.3,1.2c0,0.4,0.3,0.8,0.5,1.1C4,10.2,4,10.8,4.1,11.4z"/>
<path d="M11.2,15.7c-0.3,0,0.4-1.9,0.9-1.9c0.5,0,1.2,1.9,0.9,1.9c-0.3,0-0.6-0.6-0.9-0.6S11.5,15.7,11.2,15.7z"/>
<path d="M13,11.8c0,1,0.8,2,1.9,2c1.8,0,2.8-1.7,2.8-2.7c0,0-1.1-1.1-2.7-0.7C13.2,10.9,13,11.8,13,11.8z M15.3,13.1
	c-0.3,0-0.6-0.3-0.6-0.6s0.3-0.6,0.6-0.6s0.6,0.3,0.6,0.6S15.7,13.1,15.3,13.1z"/>
<path d="M6.5,11.1c0,1,0.9,2.7,2.8,2.7c0.8,0,1.8-1,1.8-2L6.5,11.1z M8.8,13.1c-0.3,0-0.6-0.3-0.6-0.6s0.3-0.6,0.6-0.6
	s0.6,0.3,0.6,0.6S9.2,13.1,8.8,13.1z"/>
<path d="M14.2,18c-0.2,0.1-0.4,0.2-0.5,0.3c-0.3,0.3-0.1,0.8-0.3,1.1c-0.1,0.3-0.4,0.5-0.8,0.6c-0.7,0.3-1.5,0.3-2.2,0.1
	c0.1,0,0.4,0.6,0.6,0.7c0.3,0.1,0.8,0.3,1.1,0.3c0.4,0,0.8-0.1,1.2-0.2c0.3-0.2,0.6-0.4,0.8-0.6c0.3-0.3,0.6-0.6,1-0.8
	c0.2-0.2,0.4-0.3,0.6-0.5c0.2-0.2,0.5-0.4,0.8-0.4c0.3,0,0.5,0,0.8-0.2c0.4-0.3,0.7-0.7,1-1.1c0.2-0.5,0.1-1,0.3-1.5
	c0.2-0.4,0.3-0.9-0.1-1.2c-0.4-0.2-0.7,0.5-1.2,0.6c-0.4,0-1-0.3-1.4-0.1c-0.5,0.3-0.2,1.6-0.5,2.1C15.1,17.8,14.6,17.9,14.2,18z"/>
<path d="M17,23c0,0.6,0.4,1,1,1s1-0.4,1-1c0-1.5-1.4-3.3-0.5-5.4c-0.2,0-2.1,2.8-1.3,2C17.5,19.2,17,22,17,23z"/>
</svg>
