<?xml version="1.0" encoding="utf-8"?>
<!-- Generator: Adobe Illustrator 15.0.0, SVG Export Plug-In . SVG Version: 6.00 Build 0)  -->
<!DOCTYPE svg PUBLIC "-//W3C//DTD SVG 1.1//EN" "http://www.w3.org/Graphics/SVG/1.1/DTD/svg11.dtd">
<svg xmlns="http://www.w3.org/2000/svg" xmlns:xlink="http://www.w3.org/1999/xlink" version="1.1" id="Layer_1" x="0px" y="0px" width="26px" height="26px" viewBox="0 0 26 26" enable-background="new 0 0 26 26" xml:space="preserve">

<path fill="none" stroke="#000000" stroke-width="1.8" stroke-linecap="round" stroke-linejoin="round" stroke-miterlimit="10" d="  M5.169,11.32C4.477,11.667,4,12.583,4,13.726c0,1.465,1.196,2.841,2,2.841C7.002,21.965,11.625,23,13,23s5.953-0.971,7-6.43  c1.021,0,2-1.434,2-2.845c0-1.134-0.541-2.098-1.254-2.431"/>
<path fill="#000000" d="M4.341,12.303c0.064,0.367,2.01-0.396,2.221-0.674c0.391-0.518,0.317-1.272,0.291-1.879  C6.809,8.761,6.741,7.782,6.881,6.797C6.945,6.345,6.94,5.682,7.088,5.264c0.247-0.7,0.701-0.356,1.199-0.313  c0.591,0.051,0.488-0.47,0.965-0.554c0.854-0.151,1.18,0.963,1.332,1.537c0.066,0.25,0.135,0.863,0.404,1.03  c0.408,0.253,0.686-0.156,0.782-0.503c0.184-0.663-0.273-1.824,0.257-2.355c1.587-1.587,1.65,3.167,2.447,3.166  c0.431-0.002,0.527-0.592,0.611-0.873c0.208-0.699,0.155-1.448,0.527-2.102c0.675-1.184,2.213-1.039,3.008-0.068  c1.115,1.363,0.611,2.98,0.492,4.588c-0.124,1.677,0.28,3.295,2.218,3.471c0.036,0.003,0.402,0.032,0.405,0.017  c0.104-0.698,0.146-1.391,0.19-2.092c0.027-0.431,0.333-0.808,0.321-1.241c-0.008-0.303-0.334-0.6-0.35-0.879  c-0.026-0.478,0.383-0.528,0.373-0.975c-0.013-0.525-0.431-1.169-0.715-1.585c-0.16-0.236-0.746-0.708-0.796-1.014  c-0.037-0.228,0.077-0.23,0.126-0.421c0.07-0.281,0.233-0.21,0.106-0.516c-0.035-0.083-0.351-0.294-0.424-0.347  c-1.153-0.831-2.104-1.802-3.433-2.38c-1.286-0.56-2.7-0.79-4.098-0.79c-2.448,0-4.833,0.939-7.019,1.972  C5.675,2.198,5.288,2.292,5.036,2.605C4.573,3.18,5.208,3.059,5.372,3.516c0.205,0.571-0.955,1.623-1.257,2.113  c-0.24,0.389-0.509,0.758-0.5,1.229C3.624,7.271,3.891,7.57,3.882,7.945C3.874,8.37,3.577,8.786,3.551,9.201  c-0.027,0.435,0.375,0.816,0.5,1.217C4.237,11.012,4.233,11.688,4.341,12.303z"/>
<path fill="#000000" d="M12,17c-0.375,0,0.434-2,1-2s1.281,2,1,2s-0.604-0.656-0.953-0.656S12.375,17,12,17z"/>
<path fill="#000000" d="M14,12.757c0,1.085,0.918,2.206,2.004,2.206C18,14.963,19,13.085,19,12c0,0-1.186-1.222-2.963-0.704  S14,12.757,14,12.757z M16.5,14.172c-0.371,0-0.672-0.3-0.672-0.672s0.301-0.672,0.672-0.672s0.672,0.301,0.672,0.672  S16.871,14.172,16.5,14.172z"/>
<path fill="#000000" d="M7,12c0,1.085,1,2.963,3.035,2.963c0.874,0,1.965-1.121,1.965-2.206L7,12z M9.5,14.172  c-0.372,0-0.672-0.3-0.672-0.672s0.301-0.672,0.672-0.672s0.672,0.301,0.672,0.672S9.872,14.172,9.5,14.172z"/>
<path fill="#000000" d="M15.287,19.451c-0.21,0.07-0.409,0.166-0.577,0.347c-0.308,0.33-0.099,0.817-0.272,1.202  c-0.158,0.351-0.485,0.55-0.83,0.689c-0.712,0.289-1.65,0.328-2.392,0.134c0.137,0.036,0.436,0.686,0.676,0.81  c0.311,0.158,0.842,0.278,1.194,0.298c0.428,0.024,0.892-0.062,1.27-0.265c0.336-0.18,0.603-0.443,0.907-0.669  c0.368-0.271,0.674-0.62,1.051-0.883c0.243-0.17,0.461-0.335,0.685-0.528c0.182-0.158,0.479-0.396,0.707-0.465  c0.266-0.078,0.556,0.163,0.703,0.377c0.416,0.604,0.057,2.373-0.156,2.962c-0.057,0.158-0.118,0.315-0.176,0.474  c-0.094,0.258-0.108,0.484-0.109,0.766c0,0.408,0.232,0.956,0.61,1.141c0.339,0.166,0.61,0.234,1.194-0.053  c0.304-0.15,0.43-0.678,0.46-0.994c0.028-0.304-0.026-0.602-0.149-0.876c-0.141-0.313-0.336-0.595-0.48-0.9  c-0.133-0.282-0.202-0.589-0.232-0.898c-0.025-0.253-0.084-1.602-0.008-1.847c0.141-0.457,0.38-0.885,0.449-1.362  c0.084-0.58,0.038-1.212,0.271-1.752c0.179-0.415,0.327-0.988-0.136-1.278c-0.379-0.238-0.777,0.572-1.263,0.604  c-0.439,0.029-1.082-0.329-1.491-0.102c-0.556,0.309-0.232,1.723-0.543,2.275C16.309,19.264,15.77,19.289,15.287,19.451z"/>
</svg>
